<?xml version="1.0" standalone="no"?>
<!DOCTYPE svg PUBLIC "-//W3C//DTD SVG 20010904//EN"
 "http://www.w3.org/TR/2001/REC-SVG-20010904/DTD/svg10.dtd">
<svg version="1.0" xmlns="http://www.w3.org/2000/svg"
 width="1771.000000pt" height="703.000000pt" viewBox="0 0 1771.000000 703.000000"
 preserveAspectRatio="xMidYMid meet">

<g transform="translate(0.000000,703.000000) scale(0.100000,-0.100000)"
fill="#000000" stroke="none">
<path d="M0 3515 l0 -3515 8855 0 8855 0 0 3515 0 3515 -50 0 -50 0 -2 -1121
c-3 -1045 -4 -1123 -20 -1133 -13 -8 -22 -6 -41 12 -14 13 -36 22 -55 22 -25
0 -36 7 -51 31 -17 28 -20 29 -29 13 -9 -15 -13 -16 -41 -4 -31 12 -40 33 -21
45 20 12 9 32 -28 52 -31 16 -40 17 -50 6 -15 -15 -68 -18 -77 -3 -11 18 -52
11 -58 -10 -6 -22 -36 -27 -55 -8 -17 17 -15 28 4 28 25 0 11 24 -24 39 -17 8
-35 24 -38 35 -6 17 -8 18 -18 4 -12 -16 -29 -16 -97 -3 -32 6 -37 4 -42 -16
-6 -23 -7 -23 -20 -5 -10 14 -16 16 -22 7 -4 -7 -3 -17 3 -23 15 -15 2 -47
-22 -54 -24 -8 -78 -62 -98 -98 -24 -43 -76 -141 -94 -176 -9 -19 -27 -48 -39
-65 -33 -46 -38 -66 -19 -86 10 -11 22 -19 29 -19 15 0 55 -42 55 -58 0 -6 12
-14 28 -18 15 -3 46 -12 70 -20 23 -8 50 -14 59 -14 9 0 48 -15 87 -33 39 -19
83 -37 99 -41 15 -3 27 -11 27 -16 0 -6 9 -10 20 -10 34 0 100 -24 100 -36 0
-7 30 -22 68 -35 42 -15 67 -30 67 -39 0 -8 14 -19 30 -25 36 -12 46 -23 42
-50 -2 -21 20 -29 107 -40 33 -5 45 -10 38 -17 -7 -7 -109 -6 -313 2 -167 6
-322 12 -344 12 -22 0 -82 2 -132 5 -82 4 -93 7 -93 23 0 11 5 22 10 25 21 13
10 77 -20 122 -17 24 -30 47 -30 51 0 4 -13 21 -29 38 -29 32 -31 32 -196 50
-22 3 -103 6 -180 8 -77 2 -169 9 -204 16 -35 6 -101 11 -145 11 -45 -1 -115
1 -156 4 -41 3 -87 1 -102 -5 -16 -5 -28 -6 -28 -2 0 4 -19 13 -42 20 -37 12
-44 12 -54 -3 -9 -12 -19 -15 -36 -9 -13 4 -38 6 -55 5 -18 -1 -43 1 -55 5
-22 7 -22 7 -3 15 12 4 -27 9 -95 10 -172 4 -193 5 -340 12 -340 17 -642 20
-666 7 -18 -10 -30 -11 -49 -2 -43 20 -85 15 -106 -13 -12 -14 -26 -22 -34
-18 -27 10 -16 -28 15 -57 36 -33 44 -88 11 -70 -29 15 -61 12 -61 -5 0 -9 6
-18 13 -21 16 -6 11 -62 -8 -84 -7 -8 -16 -25 -19 -37 -7 -23 -36 -40 -36 -21
0 6 -2 9 -5 6 -3 -2 2 -19 11 -37 17 -35 11 -119 -6 -91 -7 12 -10 11 -16 -3
-3 -9 -4 -27 -1 -38 3 -12 0 -31 -8 -43 -15 -25 -55 -163 -55 -193 0 -28 -23
-46 -38 -31 -9 9 -12 6 -12 -15 0 -29 -9 -34 -28 -15 -9 9 -12 7 -12 -11 0
-12 4 -19 10 -16 16 10 12 -53 -6 -80 -9 -14 -13 -25 -10 -25 4 0 2 -9 -4 -20
-6 -10 -16 -17 -24 -14 -7 3 -20 -2 -29 -11 -23 -23 -29 -2 -13 42 8 21 22 65
31 98 9 33 24 89 35 125 10 36 24 88 30 115 12 53 14 63 55 195 27 87 53 179
51 181 -1 1 -95 7 -211 14 -318 20 -550 35 -650 43 l-89 7 -8 44 c-4 24 -15
52 -23 61 -10 11 -14 27 -10 42 4 17 1 31 -11 42 -14 15 -36 18 -133 17 -128
-2 -187 2 -214 14 -9 4 -37 2 -61 -4 -50 -12 -146 -3 -153 15 -3 9 -27 11 -89
8 -62 -3 -90 -1 -106 10 -15 9 -40 13 -73 10 -120 -9 -133 -9 -154 10 -19 17
-25 18 -61 6 -31 -10 -42 -10 -54 -1 -10 9 -42 12 -93 10 -43 -2 -83 0 -90 4
-12 8 -25 8 -137 7 -43 -1 -82 3 -85 8 -13 21 -468 47 -498 29 -6 -4 -17 -1
-25 6 -10 10 -47 12 -154 10 -117 -3 -143 -1 -147 11 -3 8 -14 13 -24 11 -10
-2 -25 -4 -33 -5 -9 -1 -6 -5 8 -10 28 -12 28 -21 -4 -51 -52 -48 -65 -77 -80
-175 -8 -53 -16 -128 -18 -168 -3 -39 -12 -107 -21 -151 -9 -44 -18 -114 -21
-155 -3 -41 -9 -97 -14 -125 -5 -27 -16 -96 -25 -153 -8 -57 -22 -113 -31
-125 -15 -20 -16 -11 -9 137 3 87 11 184 16 215 5 31 9 81 9 111 0 30 16 145
35 255 19 110 30 203 26 208 -10 10 -140 25 -321 37 -80 6 -201 14 -270 20
-69 5 -196 12 -283 16 l-159 7 4 -134 c5 -215 -1 -378 -14 -352 -8 16 -8 102
0 295 l10 272 -24 32 c-16 20 -36 33 -55 36 -38 6 -48 -10 -21 -33 12 -9 22
-20 22 -23 0 -14 -31 -5 -50 14 -12 12 -32 20 -48 19 -15 -1 -35 2 -44 6 -11
4 -18 3 -18 -4 0 -16 -29 -13 -47 5 -10 9 -24 13 -37 9 -12 -3 -101 -9 -198
-12 -161 -5 -178 -4 -178 10 0 10 -7 17 -15 17 -8 0 -15 -6 -15 -14 0 -14 -21
-26 -46 -26 -8 0 -14 10 -14 23 -1 19 -2 20 -11 5 -8 -14 -15 -15 -35 -8 -14
6 -43 10 -64 10 -21 0 -42 5 -46 11 -4 8 -27 9 -69 5 -47 -5 -65 -3 -68 6 -3
8 -6 6 -6 -4 -1 -10 4 -18 9 -18 6 0 17 -5 24 -12 10 -10 2 -16 -42 -31 -30
-10 -57 -15 -60 -12 -3 3 4 8 16 12 24 6 26 11 12 33 -8 13 -13 13 -31 1 -20
-12 -24 -11 -35 4 -12 16 -17 16 -44 5 -24 -10 -46 -10 -107 0 -73 11 -77 11
-92 -8 -14 -17 -30 -21 -112 -24 -71 -2 -100 1 -113 11 -13 11 -22 12 -42 3
-17 -9 -38 -9 -69 -2 -34 8 -50 7 -65 -2 -16 -10 -24 -10 -41 0 -15 10 -24 11
-32 3 -15 -15 -43 -14 -76 4 l-28 14 -6 138 c-8 170 0 229 28 225 11 -2 49 -5
85 -8 61 -4 63 -3 36 10 l-29 13 34 11 c19 6 45 12 58 14 31 4 41 28 12 28
-14 0 -25 9 -31 25 -9 24 -13 25 -99 25 -105 0 -105 0 -95 105 4 40 3 371 -1
737 l-7 665 -682 7 c-702 7 -1606 29 -1826 45 -236 18 -515 41 -540 46 -14 3
-595 7 -1292 9 -697 2 -1272 8 -1280 12 -7 4 -58 10 -113 14 l-100 5 -3 88 -3
87 -29 0 -30 0 7 -90 c6 -87 5 -90 -16 -90 -11 0 -21 3 -22 8 -1 4 -2 23 -3
42 -2 19 -6 56 -10 83 -6 40 -10 47 -30 47 -22 0 -23 -2 -15 -46 5 -25 6 -50
3 -55 -3 -5 2 -24 10 -41 12 -23 13 -35 6 -42 -8 -8 -117 -11 -333 -10 -373 2
-534 9 -553 25 -10 8 -14 36 -14 90 l0 79 -205 0 -205 0 0 -3515z m2450 2855
c0 -5 -7 -10 -16 -10 -8 0 -12 5 -9 10 3 6 10 10 16 10 5 0 9 -4 9 -10z m-340
-21 c0 -24 -23 -21 -28 4 -2 10 3 17 12 17 10 0 16 -9 16 -21z m-381 -2 c18 5
22 2 20 -12 -5 -23 -65 -29 -73 -8 -9 21 3 36 18 24 7 -6 22 -7 35 -4z m208
-33 c-12 -13 -37 6 -37 28 l0 22 22 -21 c12 -13 19 -25 15 -29z m351 35 c-2
-6 -8 -10 -13 -10 -5 0 -11 4 -13 10 -2 6 4 11 13 11 9 0 15 -5 13 -11z m302
-3 c0 -8 -4 -18 -10 -21 -5 -3 -10 3 -10 14 0 12 5 21 10 21 6 0 10 -6 10 -14z
m3278 -5 c20 -12 -13 -19 -63 -13 -32 4 -36 6 -20 13 27 10 67 11 83 0z m-198
-41 c0 -5 -4 -10 -9 -10 -6 0 -13 5 -16 10 -3 6 1 10 9 10 9 0 16 -4 16 -10z
m-3300 -95 c-3 -5 -18 -10 -35 -10 -20 0 -31 -6 -33 -17 -2 -13 5 -17 34 -20
54 -4 57 -28 4 -28 -34 0 -41 -3 -38 -17 2 -13 16 -20 48 -24 28 -3 39 -8 30
-12 -8 -4 -35 -4 -60 1 l-45 7 -3 59 c-2 41 1 62 10 68 18 11 94 6 88 -7z
m344 -10 c-5 -22 -3 -25 19 -25 19 0 26 -6 31 -31 3 -17 3 -35 0 -40 -7 -13
-74 -11 -74 2 0 6 8 8 18 5 9 -3 24 -1 32 4 20 13 1 44 -29 48 -37 6 -42 62
-6 62 11 0 14 -6 9 -25z m196 10 c16 -19 16 -71 0 -90 -6 -7 -23 -16 -38 -20
-20 -5 -31 -2 -44 15 -21 25 -24 80 -6 98 17 17 73 15 88 -3z m-742 -8 c6 -7
14 -32 18 -55 9 -58 -12 -78 -80 -75 -27 1 -51 4 -53 7 -7 7 -21 120 -16 129
8 13 120 8 131 -6z m312 -32 c0 -34 5 -48 20 -57 11 -7 20 -16 20 -20 0 -10
-50 -10 -51 0 -7 88 -7 122 1 122 6 0 10 -20 10 -45z m-800 25 c51 -15 60 -23
65 -58 3 -31 -14 -62 -36 -62 -14 0 -11 16 6 30 8 7 15 18 15 24 -1 20 -38 56
-58 56 -42 0 -52 -11 -52 -55 0 -44 10 -55 51 -55 11 0 18 -4 15 -9 -3 -5 -23
-9 -45 -9 -35 -1 -39 2 -45 30 -8 40 -8 103 1 111 9 10 42 8 83 -3z m268 -6
c26 -17 30 -69 8 -99 -20 -27 -112 -28 -132 -1 -18 26 -18 75 1 96 19 22 91
24 123 4z m622 -94 c0 -5 -9 -10 -20 -10 -11 0 -20 5 -20 10 0 6 9 10 20 10
11 0 20 -4 20 -10z m34 -176 c9 -3 16 -10 16 -15 0 -14 -26 -10 -40 6 -13 16
-3 20 24 9z m-614 -30 c0 -8 -4 -12 -10 -9 -5 3 -10 10 -10 16 0 5 5 9 10 9 6
0 10 -7 10 -16z m400 -625 c11 -8 2 -9 -34 -5 -39 5 -51 3 -62 -11 -7 -10 -16
-15 -20 -10 -25 25 83 49 116 26z m8 -91 c-6 -16 -65 -29 -100 -22 -47 9 -31
21 21 16 30 -2 51 0 55 7 10 15 29 14 24 -1z m-1969 -450 c1 -16 -3 -28 -9
-28 -6 0 -9 30 -9 73 1 68 2 70 10 27 4 -25 8 -57 8 -72z m5039 -21 c2 -10 -3
-17 -12 -17 -18 0 -29 16 -21 31 9 14 29 6 33 -14z m297 13 c3 -6 -1 -13 -10
-16 -19 -8 -30 0 -20 15 8 14 22 14 30 1z m-265 -106 c0 -10 -86 -12 -96 -1
-4 3 -4 12 -1 20 4 12 13 12 52 3 25 -7 46 -16 45 -22z m290 26 c20 -12 5 -24
-33 -28 -18 -1 -60 -5 -94 -8 -51 -5 -63 -3 -63 9 0 16 89 31 126 21 12 -3 25
-1 28 5 9 13 16 14 36 1z m-5373 -62 c-3 -8 -6 -5 -6 6 -1 11 2 17 5 13 3 -3
4 -12 1 -19z m5297 -84 c-10 -7 -25 -18 -32 -24 -9 -9 -21 -9 -44 -1 -17 6
-61 11 -98 11 -73 0 -130 8 -130 19 0 4 73 7 162 7 136 1 158 -1 142 -12z
m-44 -69 c0 -16 -9 -19 -35 -9 -13 5 -14 8 -3 15 20 13 38 11 38 -6z m5 -115
c3 -5 -3 -10 -15 -10 -12 0 -18 5 -15 10 3 6 10 10 15 10 5 0 12 -4 15 -10z
m-232 -7 c-7 -2 -19 -2 -25 0 -7 3 -2 5 12 5 14 0 19 -2 13 -5z m104 1 c-3 -3
-12 -4 -19 -1 -8 3 -5 6 6 6 11 1 17 -2 13 -5z m193 -74 c0 -5 -4 -10 -10 -10
-5 0 -10 5 -10 10 0 6 5 10 10 10 6 0 10 -4 10 -10z m3860 -56 c0 -8 -4 -12
-10 -9 -5 3 -10 10 -10 16 0 5 5 9 10 9 6 0 10 -7 10 -16z m304 -3 c3 -5 -1
-30 -8 -57 -8 -27 -17 -116 -21 -199 -4 -82 -12 -156 -17 -162 -20 -25 -100
39 -83 67 3 5 10 84 16 176 5 92 12 171 15 175 7 12 91 11 98 0z m-4234 -11
c0 -5 -7 -10 -16 -10 -8 0 -12 5 -9 10 3 6 10 10 16 10 5 0 9 -4 9 -10z m3617
-222 c-2 -13 -4 -5 -4 17 -1 22 1 32 4 23 2 -10 2 -28 0 -40z m7278 -18 c3 -5
1 -10 -4 -10 -6 0 -11 5 -11 10 0 6 2 10 4 10 3 0 8 -4 11 -10z m-7278 -42
c-3 -7 -5 -2 -5 12 0 14 2 19 5 13 2 -7 2 -19 0 -25z m7346 -10 c24 -28 22
-34 -14 -47 -41 -14 -44 -14 -29 4 18 21 5 45 -25 45 -16 0 -25 6 -25 15 0 23
69 9 93 -17z m-7347 -106 c-12 -11 -18 7 -10 30 l8 23 4 -23 c2 -13 1 -26 -2
-30z m7439 -12 c-18 -20 -75 -28 -75 -11 0 5 17 18 38 29 43 23 65 13 37 -18z
m175 -179 c-8 -5 -100 -25 -205 -45 -321 -60 -315 -60 -328 -47 -6 6 -8 13 -4
17 11 11 307 62 432 74 119 11 123 11 105 1z m-5238 -21 c153 -12 403 -29 528
-35 52 -3 110 -8 129 -11 19 -3 114 -10 210 -15 97 -6 214 -14 261 -18 47 -5
164 -13 260 -20 96 -6 229 -16 295 -21 66 -6 170 -10 230 -10 61 0 129 -5 152
-10 24 -6 112 -15 195 -20 538 -35 629 -47 728 -93 81 -38 130 -76 130 -102 0
-15 7 -25 21 -28 13 -4 20 -12 17 -24 -4 -20 -49 -24 -83 -6 -11 6 -36 13 -56
17 -33 6 -37 4 -43 -19 -10 -38 -52 -33 -107 12 -53 45 -59 52 -52 69 8 21
-41 28 -75 10 -17 -9 -38 -16 -47 -16 -19 0 -19 -19 0 -47 8 -11 19 -33 25
-47 9 -24 7 -28 -15 -36 -14 -5 -25 -14 -25 -20 0 -15 -37 -12 -43 4 -4 9 -30
16 -77 21 -68 7 -72 9 -87 40 -12 26 -24 35 -52 40 -30 6 -38 3 -50 -14 -12
-19 -23 -21 -97 -21 -94 0 -174 17 -174 38 0 10 -15 13 -61 11 -44 -2 -63 1
-70 12 -7 11 -9 9 -9 -7 0 -36 -24 -48 -58 -30 -21 11 -32 12 -40 4 -6 -6 -18
-7 -29 -3 -63 27 -121 43 -144 38 -15 -3 -30 0 -33 6 -7 10 19 16 53 12 7 -2
10 2 7 8 -11 17 -77 25 -97 12 -11 -6 -25 -11 -33 -11 -8 0 -17 -12 -21 -27
l-7 -28 -14 28 c-8 15 -21 27 -30 27 -8 0 -26 8 -40 17 -21 13 -30 14 -45 5
-25 -16 -39 6 -14 24 10 7 15 20 12 29 -8 19 -126 22 -131 3 -2 -7 -8 -27 -13
-45 -7 -21 -7 -35 -1 -41 7 -7 -2 -10 -26 -9 -22 1 -36 6 -36 14 0 14 -7 16
-60 13 -40 -1 -77 29 -67 55 5 12 -1 15 -28 15 -19 0 -38 1 -42 3 -5 1 -12 -8
-18 -20 -10 -23 -55 -33 -55 -13 0 16 -48 -22 -56 -43 -5 -15 -12 -17 -37 -11
-18 4 -36 12 -42 18 -5 7 -18 18 -28 25 -15 12 -19 11 -30 -4 -12 -15 -19 -16
-70 -5 -31 6 -57 15 -57 18 0 4 -9 13 -20 20 -30 19 -60 -1 -60 -39 0 -24 -4
-30 -17 -27 -13 3 -17 12 -15 31 1 15 -2 36 -8 46 -9 18 -12 19 -41 4 -28 -14
-34 -14 -63 1 -17 9 -39 21 -48 28 -23 16 -72 -8 -62 -31 17 -42 16 -51 -10
-62 -20 -9 -29 -9 -41 1 -12 10 -18 10 -30 0 -15 -12 -20 -4 -16 23 0 4 -13 7
-30 7 -22 0 -32 -5 -36 -20 -8 -30 -93 -67 -93 -40 0 6 7 10 15 10 8 0 15 7
15 17 0 15 -1 15 -18 0 -26 -24 -47 -21 -60 8 -10 21 -9 33 3 62 14 34 14 38
-5 58 -15 16 -33 22 -71 23 -44 1 -51 -2 -59 -24 -5 -13 -15 -23 -22 -22 -9 2
-16 -19 -22 -67 -10 -75 -17 -85 -57 -85 -35 0 -42 10 -22 32 15 17 15 20 -7
43 -24 26 -50 33 -50 14 0 -25 -139 20 -141 46 -1 8 -2 20 -3 26 -2 19 -38 36
-43 22 -3 -7 -12 -13 -20 -13 -11 0 -13 3 -5 13 6 6 8 24 5 40 -4 22 -8 25
-19 16 -8 -6 -14 -20 -14 -30 0 -10 -4 -21 -10 -24 -5 -3 -10 -17 -10 -30 0
-13 -4 -26 -9 -30 -27 -16 -51 -88 -67 -200 -3 -22 -10 -53 -16 -69 -6 -15
-12 -40 -14 -55 -11 -116 -25 -212 -35 -241 -6 -19 -15 -64 -19 -100 -9 -65
-17 -107 -44 -233 -8 -37 -13 -74 -10 -81 7 -17 -67 -28 -144 -20 -50 6 -59 4
-76 -15 -14 -16 -17 -24 -9 -32 15 -15 5 -39 -17 -39 -9 0 -25 9 -35 20 -12
14 -31 20 -58 20 -34 0 -38 2 -27 15 7 8 23 15 37 15 31 0 65 18 58 31 -4 5
-22 9 -41 9 -19 0 -34 5 -34 11 0 9 36 10 135 5 108 -6 135 -4 137 6 0 7 2 18
3 23 1 6 5 28 9 50 4 22 11 56 16 75 5 19 18 89 30 155 38 212 61 329 70 360
5 17 16 68 24 115 26 142 38 179 105 310 5 8 21 22 37 30 16 8 33 20 39 27 36
42 293 63 537 43z m-2268 -6 c9 -3 16 -12 16 -19 0 -14 74 -33 145 -38 33 -2
41 -6 43 -25 7 -49 -53 -75 -108 -47 -25 13 -35 14 -46 4 -11 -9 -14 -8 -14 8
0 10 5 24 12 31 22 22 -2 24 -46 4 -24 -12 -51 -31 -60 -43 -11 -17 -21 -20
-41 -15 -23 6 -26 11 -23 43 3 32 8 37 47 53 27 10 40 20 32 24 -26 17 9 33
43 20z m430 -20 c18 -7 22 -60 6 -84 -8 -13 -13 -12 -42 4 -89 51 -91 81 -6
85 14 0 33 -2 42 -5z m443 -29 c22 -22 9 -49 -16 -35 -25 13 -34 27 -26 40 9
14 24 12 42 -5z m7343 -394 l0 -399 -22 -6 c-13 -3 -34 -6 -48 -7 -17 0 -11
-4 20 -12 l45 -12 3 -102 c3 -116 0 -119 -75 -88 -45 19 -78 20 -42 1 14 -7
47 -21 72 -31 l47 -18 0 -274 c0 -257 -1 -274 -17 -269 -10 3 -85 8 -168 12
-178 8 -172 7 -186 21 -14 14 -42 186 -68 423 -5 41 -19 148 -31 236 l-21 162
30 93 c16 52 33 105 36 119 10 33 46 108 95 195 22 39 55 99 73 135 17 36 35
68 40 71 4 3 15 21 25 40 10 19 24 45 32 59 8 14 16 27 17 29 4 7 68 19 106
20 l37 1 0 -399z m-7445 369 c3 -6 -1 -7 -9 -4 -18 7 -21 14 -7 14 6 0 13 -4
16 -10z m-225 -53 c0 -18 -4 -38 -9 -45 -13 -21 -23 14 -15 54 8 41 24 35 24
-9z m255 23 c3 -5 2 -10 -4 -10 -5 0 -13 5 -16 10 -3 6 -2 10 4 10 5 0 13 -4
16 -10z m-9778 -22 c-3 -8 -6 -5 -6 6 -1 11 2 17 5 13 3 -3 4 -12 1 -19z
m9200 -30 c7 -9 5 -84 -3 -218 -45 -679 -52 -760 -71 -760 -9 0 -12 7 -9 18 8
29 19 319 12 331 -8 12 -46 -17 -46 -36 0 -7 -5 -13 -11 -13 -8 0 -9 14 -5 42
7 40 15 72 58 205 18 59 40 314 28 333 -3 4 -24 11 -47 15 -63 10 -57 31 10
39 48 6 59 14 52 37 -7 22 16 27 32 7z m-3480 -15 c4 -10 10 -20 15 -23 4 -4
11 -20 14 -38 8 -37 -1 -40 -52 -16 -26 12 -34 23 -34 42 0 20 3 23 12 14 7
-7 19 -12 28 -12 8 0 0 9 -17 20 -41 24 -41 30 -3 30 20 0 33 -6 37 -17z
m3933 -43 c0 -5 -7 -10 -15 -10 -8 0 -15 5 -15 10 0 6 7 10 15 10 8 0 15 -4
15 -10z m-297 -39 c42 -26 42 -24 27 -191 -10 -108 -37 -417 -49 -550 -6 -69
-8 -75 -32 -84 -51 -17 -55 -8 -48 105 4 57 12 190 18 294 15 256 33 456 40
453 3 -2 23 -14 44 -27z m-4020 -43 c12 5 49 15 82 21 33 5 69 13 80 16 11 3
27 1 35 -5 12 -8 13 -13 3 -30 -7 -11 -13 -34 -13 -52 0 -27 -19 -80 -20 -55
0 11 -50 -43 -50 -54 0 -5 10 -13 21 -20 17 -9 23 -8 30 2 13 21 26 1 44 -70
15 -59 15 -64 -1 -83 -16 -17 -16 -21 -3 -46 21 -36 14 -60 -19 -64 -19 -2
-32 -13 -44 -37 -19 -38 -50 -60 -85 -61 -12 0 -34 -12 -50 -26 -22 -20 -34
-24 -58 -19 -34 7 -55 7 -135 0 -67 -5 -186 13 -201 32 -6 7 -16 13 -21 13 -6
0 -25 13 -44 29 -18 16 -40 33 -49 38 -34 19 -39 150 -10 287 19 95 26 113 51
133 24 19 37 22 69 17 33 -4 44 -2 59 15 20 22 46 28 46 11 0 -13 37 -13 45 1
5 7 15 3 29 -10 34 -32 89 -19 118 27 l21 35 24 -28 c20 -23 28 -26 46 -17z
m7261 17 c3 -9 0 -15 -9 -15 -16 0 -27 14 -18 24 10 10 21 7 27 -9z m-8078
-47 c-4 -18 -14 -73 -22 -123 -20 -124 -32 -162 -50 -169 -26 -10 -31 1 -23
51 26 175 57 273 87 273 11 0 13 -8 8 -32z m4471 -75 c-2 -16 -4 -3 -4 27 0
30 2 43 4 28 2 -16 2 -40 0 -55z m-2064 43 c-3 -16 3 -37 18 -57 l22 -32 19
37 c22 42 31 47 22 11 -4 -15 -1 -32 6 -40 7 -8 9 -15 4 -16 -5 0 -42 -2 -81
-3 -73 -3 -73 -3 -72 23 0 14 3 20 6 14 2 -7 8 -13 12 -13 12 0 34 76 27 89
-4 6 -1 11 7 11 10 0 13 -8 10 -24z m4164 18 c-3 -3 -12 -4 -19 -1 -8 3 -5 6
6 6 11 1 17 -2 13 -5z m-1574 -16 c2 -7 0 -44 -4 -83 -5 -38 -7 -77 -4 -85 16
-50 52 -370 47 -410 -4 -23 -5 -23 -18 9 -8 18 -14 54 -14 80 0 25 -7 54 -14
64 -13 17 -15 13 -21 -40 -18 -174 -19 -175 -44 -185 l-24 -8 6 62 c3 35 11
124 17 198 6 74 15 174 20 221 6 48 10 106 10 131 0 25 3 48 7 51 11 11 31 8
36 -5z m-3759 -99 c-8 -13 -24 -1 -24 18 0 13 3 13 15 3 8 -7 12 -16 9 -21z
m8676 -4 c22 -26 6 -35 -19 -10 -17 18 -19 25 -8 25 8 0 20 -7 27 -15z m30
-86 c0 -6 -4 -7 -10 -4 -5 3 -10 11 -10 16 0 6 5 7 10 4 6 -3 10 -11 10 -16z
m-7559 -59 c20 0 7 -18 -16 -22 -20 -4 -25 -1 -25 14 0 14 5 18 16 14 9 -3 20
-6 25 -6z m7569 -27 c-1 -28 -3 -34 -10 -22 -8 14 -3 59 6 59 2 0 4 -17 4 -37z
m-7300 -7 c0 -8 -4 -17 -9 -21 -12 -7 -24 12 -16 25 9 15 25 12 25 -4z m-173
-2 c-3 -3 -12 -4 -19 -1 -8 3 -5 6 6 6 11 1 17 -2 13 -5z m-130 -71 c-3 -10
-5 -2 -5 17 0 19 2 27 5 18 2 -10 2 -26 0 -35z m-2457 33 c0 -3 -4 -8 -10 -11
-5 -3 -10 -1 -10 4 0 6 5 11 10 11 6 0 10 -2 10 -4z m2590 -41 c0 -10 -10 -15
-30 -15 -49 0 -34 24 18 29 6 0 12 -6 12 -14z m7490 -6 c0 -5 -7 -9 -15 -9 -8
0 -15 7 -15 15 0 9 6 12 15 9 8 -4 15 -10 15 -15z m-7581 -59 c-7 -5 -16 -7
-20 -4 -9 5 -19 -22 -19 -54 0 -21 -2 -24 -10 -12 -16 25 -12 78 7 89 22 12
63 -6 42 -19z m7583 -22 c-9 -9 -12 -7 -12 12 0 19 3 21 12 12 9 -9 9 -15 0
-24z m14 -85 c-10 -10 -19 5 -10 18 6 11 8 11 12 0 2 -7 1 -15 -2 -18z
m-10156 -21 c0 -39 -41 -132 -58 -132 -20 0 -9 76 18 130 22 44 40 45 40 2z
m2604 2 c8 -3 13 -11 10 -18 -10 -26 69 -44 246 -56 96 -7 218 -16 270 -21 52
-5 120 -11 150 -13 30 -1 109 -6 175 -10 102 -6 232 -13 335 -17 14 -1 72 -5
130 -10 58 -5 155 -11 215 -14 123 -6 257 -19 325 -33 40 -8 42 -9 20 -16 -37
-10 -108 -11 -163 -1 -44 7 -48 6 -45 -11 2 -15 -4 -20 -27 -22 -16 -2 -35 -8
-40 -12 -7 -6 -15 -2 -23 10 -8 14 -28 21 -72 26 -33 4 -63 11 -66 15 -3 5
-33 9 -68 9 l-63 0 -1 -32 c0 -19 6 -37 16 -44 9 -7 14 -16 10 -20 -5 -4 -16
0 -25 9 -10 8 -31 19 -47 23 -16 4 -31 15 -33 25 -3 10 -14 21 -24 24 -24 8
-61 -3 -54 -16 4 -5 -6 -14 -20 -21 -20 -9 -34 -9 -57 0 -27 10 -35 8 -60 -9
-16 -12 -36 -18 -45 -15 -9 4 -26 0 -39 -9 -21 -14 -24 -13 -34 4 -5 11 -10
26 -10 35 0 8 -6 17 -12 19 -10 4 -9 8 2 16 21 15 -4 15 -32 0 -11 -6 -31 -8
-45 -4 -21 5 -24 10 -19 30 5 18 2 25 -8 25 -19 0 -30 -17 -14 -22 7 -3 9 -11
3 -24 -4 -10 -7 -22 -7 -26 1 -5 -2 -8 -6 -8 -5 0 -19 -9 -32 -20 -24 -21 -38
-24 -64 -14 -26 10 -18 31 14 43 38 13 38 28 0 36 -33 7 -60 -7 -60 -31 0 -8
-5 -14 -11 -14 -6 0 -8 -8 -5 -18 5 -15 -2 -21 -32 -31 -21 -7 -50 -11 -65 -9
l-27 3 25 37 c14 20 25 39 25 41 0 12 -69 35 -88 30 -29 -7 -28 -21 3 -33 40
-15 31 -33 -15 -27 -39 4 -61 -5 -40 -18 19 -12 10 -23 -26 -35 -30 -10 -38
-10 -45 1 -13 20 -11 29 6 29 10 0 15 10 15 28 0 37 -7 43 -37 29 -19 -8 -23
-16 -18 -34 5 -21 2 -23 -29 -23 -19 0 -42 -8 -52 -17 -15 -16 -18 -15 -36 10
-14 19 -29 27 -49 27 -34 0 -30 19 4 21 14 1 10 4 -13 9 -40 10 -51 5 -44 -15
7 -17 -19 -30 -36 -20 -8 5 -5 11 7 20 15 11 15 15 4 29 -18 22 -38 20 -46 -4
-5 -16 -15 -20 -51 -20 l-45 0 3 87 3 87 40 8 c39 8 72 28 47 28 -7 0 -12 5
-12 10 0 11 11 13 34 4z m-987 -68 c-6 -37 -49 -104 -55 -87 -5 16 -32 13 -38
-3 -6 -15 -44 -29 -44 -16 0 8 55 85 88 123 8 9 24 17 35 17 17 0 19 -5 14
-34z m-1567 -2 c6 -15 16 -24 23 -21 7 3 20 -12 32 -35 10 -21 35 -54 54 -71
26 -24 36 -41 37 -65 1 -42 -20 -42 -90 -2 -94 53 -117 96 -89 172 9 26 18 48
20 48 2 0 8 -12 13 -26z m4621 -139 c32 -13 33 -16 10 -19 -5 0 -13 -4 -17 -8
-12 -13 -41 -9 -54 7 -7 8 -25 15 -41 15 -15 0 -31 5 -34 10 -10 16 98 12 136
-5z m6780 -3 c3 -4 13 -50 23 -102 9 -52 26 -135 36 -185 29 -138 33 -162 23
-168 -10 -6 -294 9 -352 19 -28 4 -31 7 -17 17 13 10 18 50 28 226 l12 213
120 -7 c67 -4 124 -10 127 -13z m484 -11 c159 -1 233 -11 240 -34 1 -7 11 -57
20 -112 9 -55 25 -145 36 -199 10 -54 19 -110 19 -124 l0 -25 -167 7 c-286 13
-401 21 -408 27 -6 7 -12 39 -41 244 -32 224 -32 224 -15 227 9 2 48 0 86 -4
39 -4 142 -7 230 -7z m-7050 -2 c-18 -5 -33 -5 -39 1 -7 7 4 10 30 9 39 -1 39
-1 9 -10z m145 -3 c19 -3 58 -5 85 -6 40 0 46 -3 32 -11 -27 -16 -197 -1 -197
17 0 10 7 13 23 9 12 -3 38 -7 57 -9z m-980 -10 c0 -16 -27 -29 -41 -20 -19
11 -9 34 16 34 15 0 25 -6 25 -14z m325 5 c3 -6 -4 -9 -15 -8 -11 1 -20 5 -20
9 0 11 28 10 35 -1z m5830 -1 c3 -5 3 -21 -1 -35 -5 -20 -9 -23 -15 -13 -12
18 -11 58 0 58 6 0 12 -4 16 -10z m-5700 -20 c0 -8 -6 -15 -12 -14 -7 1 -29 2
-49 3 -21 0 -33 5 -29 11 4 6 11 8 16 5 5 -4 17 -1 26 4 24 14 48 9 48 -9z
m855 4 c30 -5 32 -7 16 -16 -10 -6 -34 -7 -55 -3 -20 3 -53 6 -73 5 -28 0 -38
3 -38 15 0 15 43 15 150 -1z m263 -11 c99 -5 115 -8 105 -20 -9 -11 -34 -13
-117 -9 -205 10 -220 13 -206 36 5 8 23 10 54 6 25 -3 99 -9 164 -13z m-3048
-13 c0 -23 -49 -20 -53 3 -3 15 2 18 25 15 17 -2 28 -9 28 -18z m485 -36 c0
-9 -7 -14 -17 -12 -25 5 -28 28 -4 28 12 0 21 -6 21 -16z m2509 0 c35 -7 40
-20 12 -29 -22 -7 -73 14 -65 26 6 11 12 11 53 3z m4652 -47 c-8 -8 -11 -3
-11 19 1 25 2 27 11 11 8 -14 8 -22 0 -30z m-4114 -4 c-3 -3 -11 -2 -17 2 -9
6 -9 10 1 16 14 8 27 -7 16 -18z m-158 8 c7 -5 9 -11 4 -14 -13 -8 -53 3 -53
14 0 11 31 11 49 0z m-3344 -22 c30 -14 47 -29 51 -45 l6 -24 30 25 c16 14 41
25 55 25 15 0 35 8 45 17 17 15 20 15 39 -5 13 -15 32 -22 57 -22 20 0 53 -3
72 -6 27 -4 40 -1 57 15 28 26 31 26 53 -1 16 -20 20 -21 43 -9 29 16 44 9 59
-27 9 -22 12 -24 15 -9 5 18 28 23 38 7 3 -5 19 -10 35 -10 16 0 35 -7 44 -15
8 -8 20 -15 26 -15 6 0 9 -6 6 -12 -3 -7 -9 -21 -12 -31 -7 -19 -31 -17 -26 2
1 6 -4 11 -10 12 -7 0 -34 4 -61 8 -35 6 -50 4 -58 -6 -6 -7 -19 -13 -29 -13
-10 0 -33 -6 -51 -14 -31 -13 -33 -17 -30 -56 2 -39 1 -41 -21 -38 -28 4 -35
33 -14 57 15 16 14 19 -11 31 -16 8 -36 21 -46 29 -14 12 -22 13 -37 3 -11 -6
-45 -15 -76 -18 -51 -6 -58 -10 -68 -36 -6 -15 -16 -28 -23 -28 -7 0 -13 -6
-13 -14 0 -8 -13 -17 -29 -21 -18 -4 -39 -21 -56 -46 -30 -43 -40 -47 -49 -23
-3 8 -10 12 -16 9 -5 -3 -10 0 -10 8 0 8 -7 28 -15 43 -8 16 -15 41 -15 57 0
15 -4 27 -9 27 -5 0 -9 -6 -8 -12 2 -63 -3 -78 -28 -78 l-25 0 0 136 c0 116 2
135 15 131 8 -4 17 -2 20 3 9 15 31 12 80 -11z m4592 -15 c-3 -3 -12 -4 -19
-1 -8 3 -5 6 6 6 11 1 17 -2 13 -5z m-1147 -25 c0 -5 -4 -9 -10 -9 -5 0 -10 7
-10 16 0 8 5 12 10 9 6 -3 10 -10 10 -16z m4190 -15 c0 -8 -7 -14 -15 -14 -8
0 -15 9 -15 20 0 13 5 18 15 14 8 -4 15 -12 15 -20z m-10015 6 c-3 -5 -12 -7
-20 -3 -21 7 -19 13 6 13 11 0 18 -4 14 -10z m6913 1 c10 -6 9 -10 -7 -14 -14
-3 -21 0 -21 9 0 16 9 18 28 5z m-3638 -51 c38 0 40 -26 5 -42 -21 -10 -28 -8
-40 8 -8 10 -14 30 -14 44 0 22 1 23 10 8 6 -11 22 -18 39 -18z m3520 20 c0
-5 -9 -10 -20 -10 -11 0 -20 5 -20 10 0 6 9 10 20 10 11 0 20 -4 20 -10z
m-3610 -20 c0 -11 -7 -20 -15 -20 -8 0 -15 9 -15 20 0 11 7 20 15 20 8 0 15
-9 15 -20z m3823 3 c-7 -2 -19 -2 -25 0 -7 3 -2 5 12 5 14 0 19 -2 13 -5z
m990 0 c-7 -2 -19 -2 -25 0 -7 3 -2 5 12 5 14 0 19 -2 13 -5z m-4193 -18 c0
-8 -4 -15 -10 -15 -5 0 -10 7 -10 15 0 8 5 15 10 15 6 0 10 -7 10 -15z m2774
-30 c3 -8 1 -15 -4 -15 -6 0 -10 7 -10 15 0 8 2 15 4 15 2 0 6 -7 10 -15z
m3441 -56 c6 -4 118 -13 250 -19 132 -6 243 -14 247 -16 4 -2 43 -5 87 -5 45
0 83 -5 86 -10 4 -5 -20 -9 -55 -9 -33 0 -69 -6 -81 -12 -17 -11 -22 -10 -30
5 -8 13 -23 17 -69 17 -46 0 -61 -4 -69 -17 -7 -14 -22 -18 -61 -17 -28 0 -56
6 -62 12 -14 14 -98 16 -98 4 0 -12 -42 -30 -57 -25 -8 3 -11 14 -7 29 6 22 3
24 -27 25 -62 2 -104 -3 -113 -12 -17 -16 -61 -10 -84 11 -12 11 -27 20 -34
20 -7 0 -8 3 -2 9 17 18 159 25 179 10z m-282 -30 c-7 -27 -23 -24 -23 6 0 17
4 23 14 19 8 -3 12 -13 9 -25z m-7136 15 c-3 -3 -12 -4 -19 -1 -8 3 -5 6 6 6
11 1 17 -2 13 -5z m5905 -16 c-7 -7 -12 -8 -12 -2 0 14 12 26 19 19 2 -3 -1
-11 -7 -17z m1283 12 c-3 -5 -12 -7 -20 -3 -21 7 -19 13 6 13 11 0 18 -4 14
-10z m-9845 -45 c0 -15 -43 -12 -48 3 -3 10 4 13 22 10 15 -2 26 -7 26 -13z
m10833 -2 c-7 -2 -21 -2 -30 0 -10 3 -4 5 12 5 17 0 24 -2 18 -5z m-8485 -87
c-2 -22 -9 -41 -15 -44 -10 -3 -13 13 -13 56 0 32 3 62 7 66 12 11 24 -35 21
-78z m272 54 c0 -11 -6 -20 -14 -20 -21 0 -31 21 -15 31 22 14 29 11 29 -11z
m3960 -55 c0 -9 -6 -12 -16 -8 -13 5 -13 7 -2 14 17 11 18 11 18 -6z m-5075
-24 c9 -16 -25 -28 -98 -36 -37 -4 -70 -11 -73 -16 -3 -5 -10 -7 -15 -4 -17
11 -9 23 19 28 15 3 52 12 82 20 69 19 77 19 85 8z m-1673 -23 c43 -7 78 -16
78 -19 0 -17 -72 -30 -124 -24 -60 8 -93 25 -82 43 9 15 32 15 128 0z m2575
-86 c59 -11 67 -11 78 4 18 26 49 11 41 -20 -8 -32 9 -76 29 -76 9 0 14 4 10
9 -3 5 0 13 6 16 5 4 8 13 5 21 -3 7 4 18 15 24 15 8 23 7 35 -5 10 -10 35
-15 75 -15 47 0 59 -3 59 -16 0 -9 8 -14 18 -13 28 2 42 0 41 -8 -4 -25 4 -25
26 1 l25 29 10 -27 c5 -15 10 -43 10 -62 0 -27 4 -34 20 -34 20 0 26 11 13 24
-15 15 -11 44 7 61 18 16 23 17 45 5 25 -14 34 -53 15 -65 -18 -11 -10 -25 15
-25 22 0 24 4 22 38 l-2 37 70 3 c85 4 148 -14 142 -39 -3 -9 -2 -47 2 -84 9
-80 6 -82 -101 -91 -40 -4 -76 -12 -80 -18 -5 -8 -8 -7 -8 2 0 6 -4 12 -10 12
-6 0 -10 -50 -10 -130 0 -124 1 -130 20 -130 27 0 37 -29 38 -113 2 -61 0 -69
-18 -74 -11 -3 -20 -10 -20 -15 0 -5 -4 -6 -10 -3 -5 3 -10 32 -10 64 0 56 -1
58 -35 77 -20 10 -33 24 -31 31 9 22 -34 36 -87 30 -27 -4 -51 -8 -53 -10 -2
-2 -7 -18 -10 -37 -6 -26 -4 -31 6 -25 8 5 11 4 6 -3 -4 -6 -13 -9 -21 -6 -10
4 -12 0 -8 -17 4 -15 0 -26 -12 -35 -10 -8 -17 -16 -14 -18 5 -5 45 -9 87 -7
31 1 32 3 32 41 0 37 2 40 29 40 26 0 29 -3 33 -39 3 -34 0 -41 -20 -51 -13
-5 -28 -8 -33 -5 -5 4 -9 -5 -9 -19 0 -24 23 -56 41 -56 5 0 9 -5 9 -11 0 -8
-11 -9 -32 -4 -29 6 -62 10 -140 14 -12 1 -18 9 -18 26 0 25 -1 26 -62 23 -55
-3 -63 -5 -63 -23 0 -17 8 -21 59 -25 38 -3 61 -10 64 -19 3 -8 0 -11 -6 -7
-6 4 -23 4 -37 0 -23 -6 -25 -10 -25 -64 0 -44 4 -59 16 -64 13 -5 14 -9 4
-21 -17 -21 -43 -19 -38 3 4 13 -2 17 -24 19 -19 2 -28 -3 -28 -12 0 -8 -4
-15 -10 -15 -5 0 -10 5 -10 10 0 15 -33 12 -56 -5 -10 -8 -28 -15 -40 -15 -11
0 -29 -6 -39 -14 -19 -14 -45 -84 -45 -123 0 -26 -18 -39 -33 -24 -16 16 -27
14 -27 -6 -1 -17 -1 -17 -11 0 -12 20 -27 14 -38 -16 -7 -19 -26 299 -24 398
3 107 33 720 39 795 7 76 8 81 16 50 9 -34 11 -36 75 -48z m-2400 12 c6 -17
-74 -34 -104 -23 -13 5 -35 9 -49 9 -15 0 -24 6 -24 15 0 13 14 15 87 13 52
-2 88 -7 90 -14z m1033 1 c0 -12 -13 -15 -57 -14 -57 1 -58 1 -28 14 41 19 85
19 85 0z m-646 -11 c22 -22 20 -31 -9 -38 -41 -10 -61 14 -33 42 16 16 23 15
42 -4z m494 -6 c-3 -8 -26 -14 -54 -16 -56 -4 -51 14 6 21 19 2 39 5 43 5 5 1
7 -4 5 -10z m-958 -44 c0 -8 -4 -12 -10 -9 -5 3 -10 10 -10 16 0 5 5 9 10 9 6
0 10 -7 10 -16z m10265 -3 c3 -5 1 -12 -5 -16 -5 -3 -10 1 -10 9 0 18 6 21 15
7z m-8802 -47 c9 -3 17 -11 17 -18 0 -17 -47 -68 -81 -88 -53 -33 -249 -118
-271 -118 -20 0 -19 3 10 16 54 27 35 57 -23 35 -11 -4 -37 -4 -59 1 -29 6
-43 5 -55 -5 -22 -19 -129 -39 -229 -42 -46 -2 -86 -5 -88 -8 -2 -2 -16 -2
-29 1 -24 4 -24 5 -8 17 10 8 15 16 11 20 -11 11 15 32 33 28 23 -6 33 28 18
61 -8 17 -20 26 -36 26 -12 0 -23 4 -23 10 0 14 68 30 131 30 31 0 75 7 98 15
36 12 46 12 82 0 23 -9 54 -14 69 -13 16 1 35 -4 44 -11 8 -7 20 -10 26 -6 6
4 20 -1 30 -10 18 -17 21 -17 45 -1 15 10 34 14 46 11 34 -11 78 4 85 30 5 22
11 24 72 24 37 0 75 -3 85 -5z m-1118 -14 c3 -5 -1 -10 -10 -10 -9 0 -13 5
-10 10 3 6 8 10 10 10 2 0 7 -4 10 -10z m-146 -33 c14 -18 4 -27 -32 -27 -26
0 -29 -3 -23 -25 5 -19 2 -25 -10 -25 -21 0 -47 -27 -38 -41 4 -8 9 -7 15 2 6
10 9 8 9 -8 0 -18 5 -21 28 -20 23 2 27 -2 27 -23 0 -32 -27 -37 -100 -16 -75
22 -104 50 -108 104 -3 39 0 45 24 57 15 8 58 17 95 20 38 3 70 8 73 10 9 9
29 5 40 -8z m176 -27 c-11 -17 -72 -38 -97 -33 -49 9 -26 33 32 33 16 0 31 4
35 10 3 5 12 7 20 4 8 -4 13 -10 10 -14z m110 -110 c3 -5 -1 -10 -9 -10 -9 0
-16 5 -16 10 0 6 4 10 9 10 6 0 13 -4 16 -10z m5840 -10 c3 -5 -1 -10 -9 -10
-9 0 -16 5 -16 10 0 6 4 10 9 10 6 0 13 -4 16 -10z m143 -38 c3 -21 7 -23 38
-17 42 7 53 -11 31 -54 -16 -32 -13 -41 12 -41 9 0 23 -5 31 -10 13 -9 13 -11
0 -19 -12 -8 -12 -14 -1 -34 11 -20 11 -29 0 -48 -15 -29 -22 -149 -9 -149 6
0 10 -7 10 -16 0 -12 6 -15 25 -10 15 4 25 2 25 -4 0 -6 -5 -8 -12 -4 -7 5 -9
2 -6 -8 4 -8 -2 -28 -12 -43 -15 -22 -16 -33 -7 -52 8 -18 8 -29 -1 -44 -7
-10 -12 -27 -12 -38 0 -10 -13 -33 -29 -52 -27 -30 -61 -132 -61 -180 0 -21
-23 -31 -75 -33 -39 -1 -40 -2 -40 -36 l0 -35 -45 3 c-28 2 -51 10 -62 22 -9
10 -28 22 -40 26 -29 9 -38 22 -38 57 0 17 -5 27 -15 27 -12 0 -15 17 -15 93
0 97 -3 105 -35 123 -23 13 -33 54 -13 54 26 0 40 17 33 39 -5 16 -12 20 -25
16 -10 -3 -21 -2 -24 3 -9 14 24 96 50 123 24 25 32 49 16 49 -5 0 -14 11 -20
25 -8 17 -20 25 -37 25 -30 0 -34 15 -4 17 48 4 89 25 95 49 4 14 15 29 26 35
14 7 16 14 9 23 -7 9 -4 17 10 30 20 17 33 17 71 1 12 -5 17 -1 20 17 2 13 15
28 31 36 15 7 27 19 27 26 0 41 73 48 78 8z m-5948 14 c0 -11 -19 -15 -25 -6
-3 5 1 10 9 10 9 0 16 -2 16 -4z m547 -12 c6 -17 -27 -26 -43 -13 -8 6 -14 16
-14 21 0 13 53 6 57 -8z m5123 -25 c0 -22 -4 -38 -9 -34 -8 4 -9 24 -2 68 0 4
3 7 6 7 3 0 5 -18 5 -41z m-5740 11 c0 -5 -2 -10 -4 -10 -3 0 -8 5 -11 10 -3
6 -1 10 4 10 6 0 11 -4 11 -10z m5854 -6 c24 -9 9 -24 -25 -24 -19 0 -29 5
-29 15 0 15 26 20 54 9z m-5389 -124 c0 -13 -5 -25 -11 -27 -13 -4 -26 35 -18
49 10 16 29 2 29 -22z m-598 -16 c-3 -3 -12 -4 -19 -1 -8 3 -5 6 6 6 11 1 17
-2 13 -5z m223 -28 c0 -11 -19 -15 -25 -6 -3 5 1 10 9 10 9 0 16 -2 16 -4z
m297 -2 c-3 -3 -12 -4 -19 -1 -8 3 -5 6 6 6 11 1 17 -2 13 -5z m2563 -39 c10
-13 9 -15 -9 -15 -12 0 -21 6 -21 15 0 8 4 15 9 15 5 0 14 -7 21 -15z m3217
-7 c-3 -8 -6 -5 -6 6 -1 11 2 17 5 13 3 -3 4 -12 1 -19z m-3127 -128 c0 -11
-4 -20 -10 -20 -5 0 -10 9 -10 20 0 11 5 20 10 20 6 0 10 -9 10 -20z m-150
-34 c8 -2 -11 -4 -43 -5 -32 0 -56 3 -53 7 4 7 57 6 96 -2z m-430 -190 c0 -39
-11 -56 -36 -56 -30 0 -49 32 -34 60 7 13 21 20 40 20 25 0 30 -4 30 -24z
m342 -11 c0 -5 -5 -11 -11 -13 -6 -2 -11 4 -11 13 0 9 5 15 11 13 6 -2 11 -8
11 -13z m2872 -73 c-1 -6 -2 -24 -3 -39 -2 -27 -2 -27 -16 -9 -21 28 -20 68 3
64 9 -2 17 -9 16 -16z m-2904 -17 c0 -8 -2 -15 -4 -15 -2 0 -6 7 -10 15 -3 8
-1 15 4 15 6 0 10 -7 10 -15z m3377 -111 c-3 -3 -12 -4 -19 -1 -8 3 -5 6 6 6
11 1 17 -2 13 -5z m-4157 -114 c0 -5 -5 -10 -11 -10 -5 0 -7 5 -4 10 3 6 8 10
11 10 2 0 4 -4 4 -10z"/>
<path d="M2835 6174 c-8 -45 14 -76 43 -58 24 15 32 66 12 81 -29 23 -47 15
-55 -23z"/>
<path d="M2071 6164 c12 -11 26 -14 52 -9 50 10 37 25 -21 25 -42 0 -45 -1
-31 -16z"/>
<path d="M2075 6121 c-12 -20 6 -31 46 -31 33 0 40 3 37 18 -4 20 -72 30 -83
13z"/>
<path d="M1841 6158 c-11 -31 -1 -56 32 -76 26 -16 28 -16 54 10 23 24 26 31
17 55 -8 24 -16 28 -52 31 -36 3 -43 0 -51 -20z"/>
<path d="M11280 3420 c0 -5 5 -10 10 -10 6 0 10 5 10 10 0 6 -4 10 -10 10 -5
0 -10 -4 -10 -10z"/>
<path d="M11747 3334 c-7 -8 4 -44 14 -44 12 0 12 37 0 44 -4 3 -11 3 -14 0z"/>
<path d="M11876 3285 c-3 -8 -2 -15 3 -15 5 0 14 7 21 15 10 12 10 15 -3 15
-8 0 -17 -7 -21 -15z"/>
<path d="M14276 3233 c-11 -11 -6 -23 9 -23 8 0 15 4 15 9 0 13 -16 22 -24 14z"/>
<path d="M8248 2453 c7 -3 16 -2 19 1 4 3 -2 6 -13 5 -11 0 -14 -3 -6 -6z"/>
<path d="M8308 2453 c12 -2 30 -2 40 0 9 3 -1 5 -23 4 -22 0 -30 -2 -17 -4z"/>
<path d="M8530 2440 c0 -5 14 -10 30 -10 17 0 30 5 30 10 0 6 -13 10 -30 10
-16 0 -30 -4 -30 -10z"/>
<path d="M8441 2419 c-10 -17 -8 -19 19 -19 35 0 36 1 12 21 -17 15 -20 15
-31 -2z"/>
<path d="M7916 2393 c-11 -11 -6 -23 8 -23 8 0 17 4 20 9 7 10 -19 23 -28 14z"/>
<path d="M7596 2151 c-18 -7 -18 -8 -2 -14 10 -4 29 -7 43 -7 21 0 24 2 13 15
-14 16 -25 18 -54 6z"/>
<path d="M7740 2145 c0 -9 5 -15 11 -13 6 2 11 8 11 13 0 5 -5 11 -11 13 -6 2
-11 -4 -11 -13z"/>
<path d="M7387 2053 c-11 -10 -8 -63 3 -63 6 0 10 16 10 35 0 36 -2 40 -13 28z"/>
<path d="M15120 2000 c0 -5 5 -10 11 -10 5 0 7 5 4 10 -3 6 -8 10 -11 10 -2 0
-4 -4 -4 -10z"/>
<path d="M7973 1543 c-3 -6 -3 -20 -1 -30 3 -15 13 -18 63 -18 57 0 60 1 60
25 0 23 -4 25 -59 30 -41 4 -60 2 -63 -7z"/>
<path d="M8142 1515 c-11 -12 -10 -15 3 -15 8 0 15 7 15 15 0 18 -2 18 -18 0z"/>
<path d="M7706 1357 c-11 -41 -8 -44 52 -42 76 2 76 3 62 20 -7 8 -9 15 -4 15
4 0 4 4 -1 9 -6 5 -31 12 -57 14 -41 5 -47 3 -52 -16z"/>
<path d="M7417 858 c-9 -31 -1 -38 44 -38 34 0 39 3 39 24 0 40 -73 53 -83 14z"/>
<path d="M7297 693 c-10 -9 -9 -41 1 -47 4 -2 14 -1 21 4 11 6 11 11 -1 29 -8
11 -18 18 -21 14z"/>
<path d="M5839 1610 c-14 -4 -54 -6 -89 -5 -35 2 -71 -1 -79 -5 -9 -5 -24 -11
-34 -14 -13 -4 -17 -14 -15 -33 5 -47 89 -51 243 -11 72 18 87 48 34 67 -18 6
-32 11 -33 10 -1 0 -13 -4 -27 -9z m-26 -29 c17 -6 17 -8 -2 -25 -15 -14 -28
-16 -60 -11 -46 8 -49 12 -23 31 18 14 56 17 85 5z"/>
<path d="M11380 1280 c0 -5 5 -10 10 -10 6 0 10 5 10 10 0 6 -4 10 -10 10 -5
0 -10 -4 -10 -10z"/>
<path d="M11320 640 c0 -5 5 -10 11 -10 5 0 7 5 4 10 -3 6 -8 10 -11 10 -2 0
-4 -4 -4 -10z"/>
<path d="M6238 7003 c-5 -103 6 -138 40 -117 13 8 18 28 20 78 l3 66 -31 0
c-26 0 -30 -4 -32 -27z"/>
<path d="M6960 7021 c0 -12 87 -91 100 -91 5 0 10 13 10 29 0 48 18 45 25 -3
8 -48 38 -72 56 -45 6 10 9 11 9 2 0 -7 7 -13 15 -13 11 0 15 12 15 49 0 27 3
56 6 65 5 14 -9 16 -115 16 -67 0 -121 -4 -121 -9z"/>
<path d="M7331 7003 c18 -55 21 -63 29 -63 12 0 38 33 49 63 l11 27 -49 0
c-49 0 -49 0 -40 -27z"/>
<path d="M9890 6998 c0 -18 -7 -118 -15 -223 -24 -291 -33 -417 -44 -580 -6
-82 -15 -206 -21 -275 -49 -620 -50 -580 16 -580 55 0 64 19 64 128 1 53 5
142 10 197 5 55 14 172 20 260 6 88 15 205 19 260 13 148 29 368 41 555 6 91
13 193 16 228 l6 62 -56 0 -56 0 0 -32z"/>
<path d="M13546 6983 c-4 -27 -9 -67 -13 -90 -4 -29 -2 -43 6 -43 6 0 11 10
11 23 0 17 2 19 9 8 11 -18 17 2 25 92 6 51 4 57 -13 57 -14 0 -20 -10 -25
-47z"/>
<path d="M17246 6858 c-35 -161 -73 -327 -96 -423 -5 -22 -21 -89 -35 -150
-27 -110 -45 -193 -69 -315 -7 -36 -21 -99 -30 -140 -9 -41 -20 -95 -25 -120
-6 -25 -17 -79 -26 -120 -84 -390 -95 -454 -80 -469 12 -13 15 -13 19 0 6 18
24 95 41 179 8 36 18 83 24 105 60 233 200 848 246 1075 15 74 31 148 36 164
5 16 9 42 9 57 0 15 5 31 10 34 6 3 10 20 10 36 0 17 5 39 11 50 5 11 17 50
25 87 8 37 17 79 20 95 6 25 4 27 -23 27 l-29 0 -38 -172z"/>
<path d="M13505 6732 c-9 -53 -19 -119 -20 -147 -2 -27 -8 -84 -14 -125 -5
-41 -14 -111 -20 -155 -6 -44 -15 -95 -20 -112 -15 -51 -17 -136 -3 -141 8 -2
12 9 12 35 0 55 10 88 22 71 5 -8 6 1 2 24 -3 20 -1 53 6 72 6 20 14 53 16 73
26 198 49 340 59 366 4 10 3 17 -4 17 -8 0 -9 17 -5 54 4 32 2 56 -4 60 -6 3
-16 -33 -27 -92z"/>
<path d="M13552 6810 c0 -14 2 -19 5 -12 2 6 2 18 0 25 -3 6 -5 1 -5 -13z"/>
<path d="M13403 6005 c0 -22 2 -30 4 -17 2 12 2 30 0 40 -3 9 -5 -1 -4 -23z"/>
<path d="M8287 5914 c-3 -3 -19 -6 -36 -6 -18 -1 -34 -5 -37 -10 -3 -4 -14 -3
-25 3 -11 5 -32 9 -47 7 -42 -5 -40 -39 5 -86 51 -52 77 -66 103 -52 23 12 25
21 9 37 -7 7 -9 19 -5 28 5 14 9 15 22 5 8 -7 13 -19 10 -27 -8 -19 21 -28 39
-13 8 6 14 15 13 18 -1 4 4 20 11 36 6 16 11 36 9 44 -3 14 -60 27 -71 16z"/>
<path d="M13382 5880 c0 -14 2 -19 5 -12 2 6 2 18 0 25 -3 6 -5 1 -5 -13z"/>
<path d="M7973 5872 c-6 -11 -8 -25 -3 -32 6 -10 9 -9 13 1 2 8 8 2 12 -15 5
-18 3 -43 -4 -63 -15 -41 -14 -43 22 -36 29 6 38 39 13 49 -10 4 -13 15 -9 38
5 32 -10 76 -25 76 -4 0 -12 -8 -19 -18z"/>
<path d="M8422 5863 c-5 -10 -12 -31 -16 -48 -4 -16 -14 -37 -22 -45 -119
-126 -117 -123 -118 -230 l-1 -65 50 -3 c47 -3 51 -1 69 29 l19 31 78 -7 c43
-3 92 -10 109 -15 32 -9 370 -26 370 -18 0 3 -7 19 -15 35 -19 38 -21 123 -6
231 7 45 10 86 7 90 -3 5 -47 9 -98 10 -142 3 -349 12 -385 18 -24 3 -34 0
-41 -13z"/>
<path d="M9339 5845 c-1 -6 0 -59 1 -120 2 -159 -23 -237 -95 -297 -11 -9 -17
-19 -13 -23 13 -14 126 -16 134 -3 4 6 6 104 5 217 -2 163 -5 209 -17 221 -8
8 -14 10 -15 5z"/>
<path d="M9053 5823 c-14 -3 -24 -14 -28 -34 -4 -16 -11 -27 -16 -23 -5 3 -9
-13 -9 -36 0 -22 -6 -49 -12 -60 -19 -30 14 -49 87 -50 33 0 73 -7 89 -15 62
-32 82 -14 92 82 7 65 -11 156 -27 132 -7 -11 -12 -12 -29 -1 -19 11 -99 14
-147 5z"/>
<path d="M8085 5698 c-7 -59 -10 -64 -71 -126 -35 -36 -64 -68 -64 -72 0 -4
53 -10 117 -13 87 -5 119 -3 126 6 12 17 -1 138 -19 183 -12 28 -60 84 -72 84
-6 0 -13 -28 -17 -62z"/>
<path d="M10550 5715 c-14 -17 -6 -61 13 -79 21 -19 78 -46 96 -46 9 0 22 5
28 11 6 6 26 14 43 18 25 5 36 14 48 44 10 26 11 42 5 48 -6 6 -58 12 -116 15
-84 3 -107 1 -117 -11z m190 -56 c0 -10 -4 -19 -10 -19 -12 0 -31 35 -24 43
11 11 34 -5 34 -24z"/>
<path d="M10234 5703 c-3 -10 -10 -29 -14 -43 -5 -14 -11 -47 -14 -75 -3 -27
-7 -63 -10 -80 -3 -16 -8 -62 -12 -102 -7 -70 -6 -72 17 -77 47 -9 257 -26
321 -26 l66 0 7 33 c13 62 17 167 6 167 -6 0 -11 5 -11 12 0 6 -22 37 -50 69
-27 32 -50 64 -50 71 0 21 -29 57 -30 38 -1 -12 -3 -12 -14 3 -12 15 -15 16
-26 2 -8 -9 -17 -12 -24 -6 -9 7 -124 31 -150 31 -3 0 -9 -8 -12 -17z"/>
<path d="M10850 5634 c-15 -27 -50 -66 -86 -94 -49 -38 -65 -58 -78 -96 -25
-75 -23 -81 32 -88 109 -14 357 -26 500 -25 l153 1 54 -52 55 -51 67 3 c67 3
67 3 74 35 11 54 -2 365 -15 354 -6 -5 -22 -11 -36 -13 -14 -1 -25 -10 -25
-18 0 -19 -64 -20 -150 -4 -33 6 -94 17 -135 24 -41 6 -84 16 -95 20 -11 5
-36 11 -55 14 -19 2 -60 10 -90 16 -30 7 -74 9 -98 6 -27 -4 -41 -2 -37 4 3 6
2 10 -2 10 -5 0 -20 -21 -33 -46z"/>
<path d="M13198 5639 c-7 -5 -25 -9 -40 -9 -15 0 -30 -5 -33 -11 -4 -5 -18
-14 -31 -19 -18 -7 -24 -17 -24 -40 0 -31 30 -70 54 -70 8 0 28 -12 46 -26 27
-24 33 -25 48 -12 9 8 35 20 58 26 31 9 44 20 57 47 10 20 21 34 26 30 9 -5
13 4 27 58 4 17 3 19 -5 7 -9 -13 -14 -13 -31 -2 -12 7 -30 10 -41 7 -11 -4
-25 -2 -32 3 -18 14 -64 20 -79 11z"/>
<path d="M12556 5630 c-17 -5 -75 -10 -130 -11 -72 -2 -112 -7 -138 -20 -37
-17 -38 -17 -38 1 0 18 -20 40 -20 23 -6 -108 -21 -217 -34 -244 -26 -57 -49
-160 -38 -171 6 -6 81 -12 179 -13 92 -1 220 -7 283 -13 97 -9 303 -17 334
-13 5 0 -1 12 -14 26 -37 39 -17 48 81 38 121 -12 119 -13 119 64 0 50 -5 72
-21 94 -11 16 -18 36 -15 44 3 8 1 15 -5 15 -6 0 -23 14 -39 32 -23 24 -31 45
-36 90 -4 32 -11 58 -15 58 -5 0 -9 -5 -9 -11 0 -5 -5 -7 -11 -4 -6 4 -61 8
-122 10 -62 1 -150 5 -197 9 -47 3 -98 1 -114 -4z"/>
<path d="M13420 5556 c-14 -59 -53 -112 -107 -143 -18 -11 -45 -36 -61 -56
-31 -39 -59 -124 -45 -138 5 -5 103 -12 219 -16 175 -5 211 -4 221 8 8 10 11
67 10 189 l-2 175 -50 7 c-27 5 -70 10 -95 12 -25 2 -52 7 -61 11 -12 5 -18
-6 -29 -49z"/>
<path d="M9000 5549 c0 -10 33 -29 51 -29 9 0 9 3 0 14 -14 17 -51 28 -51 15z"/>
<path d="M7870 5530 c0 -5 7 -10 16 -10 8 0 12 5 9 10 -3 6 -10 10 -16 10 -5
0 -9 -4 -9 -10z"/>
<path d="M12167 5486 c-4 -15 -6 -31 -2 -34 10 -10 16 6 13 35 l-3 28 -8 -29z"/>
<path d="M8190 5441 c0 -6 5 -13 10 -16 6 -3 10 1 10 9 0 9 -4 16 -10 16 -5 0
-10 -4 -10 -9z"/>
<path d="M9105 5428 c-8 -21 0 -48 14 -48 16 0 20 28 6 47 -13 17 -14 17 -20
1z"/>
<path d="M8397 5403 c-3 -4 -8 -25 -12 -45 -7 -36 -6 -37 29 -43 20 -4 36 -11
36 -15 0 -10 -26 -20 -51 -20 -23 0 -25 -15 -3 -24 9 -3 57 -6 107 -6 125 -1
415 -26 453 -39 16 -7 48 -10 70 -9 31 3 39 7 39 23 0 14 -8 21 -28 23 -33 4
-26 22 9 22 20 0 24 5 24 28 0 53 -6 55 -167 58 -169 3 -393 27 -479 50 -12 3
-24 2 -27 -3z m421 -123 c1 0 2 -4 2 -9 0 -14 -32 -23 -44 -11 -5 5 -32 10
-58 10 -29 0 -48 4 -48 11 0 10 56 9 148 -1z"/>
<path d="M8126 5379 c-14 -11 -26 -25 -26 -30 0 -17 57 -9 74 10 17 18 17 20
-2 30 -16 8 -25 6 -46 -10z"/>
<path d="M13188 5393 c7 -3 16 -2 19 1 4 3 -2 6 -13 5 -11 0 -14 -3 -6 -6z"/>
<path d="M9291 5352 c-6 -11 -11 -34 -11 -50 0 -27 3 -30 39 -34 22 -2 45 -2
50 0 14 5 14 42 1 62 -9 13 -12 13 -21 -2 -5 -10 -14 -18 -19 -18 -6 0 -10 8
-10 18 0 9 -4 23 -9 31 -7 11 -11 10 -20 -7z"/>
<path d="M9164 5315 c-9 -22 1 -29 15 -11 8 10 9 16 1 21 -5 3 -13 -1 -16 -10z"/>
<path d="M9776 5288 c-20 -63 -24 -103 -29 -273 -2 -66 0 -128 5 -138 5 -9 6
-23 1 -30 -17 -28 -5 -104 24 -136 10 -12 13 -12 19 5 3 10 10 30 15 44 4 14
8 60 7 102 -1 49 3 82 11 92 8 10 15 57 18 123 2 60 7 122 12 138 4 17 5 41 1
55 -5 20 -13 26 -43 28 -24 2 -39 -1 -41 -10z"/>
<path d="M7700 5270 c0 -11 -7 -23 -15 -26 -21 -9 -8 -24 21 -24 17 0 24 -5
24 -20 0 -23 22 -27 39 -6 9 10 8 16 -4 26 -8 7 -15 21 -15 31 0 10 -9 23 -19
29 -27 14 -31 13 -31 -10z"/>
<path d="M10607 5253 c-12 -11 -8 -23 8 -23 8 0 15 7 15 15 0 16 -12 20 -23 8z"/>
<path d="M11925 5231 c-10 -17 4 -31 31 -31 19 0 25 5 22 18 -4 19 -43 29 -53
13z"/>
<path d="M9281 5220 c17 -10 96 -7 106 4 4 3 -23 6 -58 6 -46 -1 -59 -3 -48
-10z"/>
<path d="M10640 5210 c0 -11 5 -20 10 -20 6 0 10 -6 10 -14 0 -14 49 -36 81
-36 24 0 42 -33 27 -48 -7 -7 -8 -12 -2 -12 71 -2 256 -11 279 -14 70 -11 255
-29 312 -30 46 -2 64 1 68 12 3 9 -6 18 -25 25 -36 14 -39 27 -6 27 29 0 42
35 19 49 -10 5 -14 15 -10 25 4 9 1 16 -6 16 -142 -1 -453 13 -552 25 -181 20
-205 20 -205 -5z m734 -45 c19 -15 19 -15 -1 -15 -11 0 -34 -7 -49 -15 -16 -8
-38 -15 -49 -15 -13 0 -7 7 20 21 22 12 42 25 43 30 5 12 14 11 36 -6z m-274
-54 c43 -8 41 -9 -27 -10 -43 0 -73 3 -73 9 0 12 36 12 100 1z"/>
<path d="M10390 5200 c0 -11 5 -20 11 -20 6 0 9 -7 5 -15 -3 -9 0 -15 10 -15
10 0 14 6 11 14 -3 8 -1 16 5 18 19 7 0 38 -22 38 -13 0 -20 -7 -20 -20z"/>
<path d="M11520 5200 c0 -5 11 -17 24 -26 14 -8 26 -25 28 -37 3 -19 9 -22 53
-22 48 0 50 1 51 28 1 30 -5 34 -25 15 -10 -11 -15 -10 -24 2 -7 9 -20 14 -29
12 -9 -2 -22 6 -28 17 -11 21 -50 30 -50 11z"/>
<path d="M14640 5160 c0 -5 5 -10 10 -10 6 0 10 5 10 10 0 6 -4 10 -10 10 -5
0 -10 -4 -10 -10z"/>
<path d="M14964 5145 c-10 -8 -14 -14 -9 -15 15 0 40 18 34 24 -3 3 -14 -1
-25 -9z"/>
<path d="M14680 5121 c0 -6 8 -19 19 -30 10 -10 23 -26 28 -35 5 -8 23 -19 41
-22 28 -6 32 -4 32 14 0 11 7 22 15 26 40 15 7 31 -80 39 -17 2 -36 7 -43 11
-7 4 -12 2 -12 -3z m80 -51 c0 -5 -2 -10 -4 -10 -3 0 -8 5 -11 10 -3 6 -1 10
4 10 6 0 11 -4 11 -10z"/>
<path d="M12948 5115 c-4 -4 5 -17 20 -29 73 -59 113 -70 134 -37 8 14 16 17
24 10 8 -7 13 -1 16 20 4 27 2 29 -26 30 -17 1 -60 4 -96 7 -36 3 -68 2 -72
-1z"/>
<path d="M13182 5088 c-36 -36 3 -82 77 -92 41 -5 51 -10 49 -24 -3 -14 18
-19 157 -33 88 -9 176 -21 195 -27 19 -6 63 -13 98 -17 49 -5 62 -3 62 8 0 8
11 19 24 25 18 8 23 16 19 31 -6 23 -15 26 -43 11 -12 -6 -33 -7 -57 -1 -21 5
-31 9 -22 10 9 1 23 8 30 18 18 21 73 45 124 53 22 4 -61 7 -185 8 -195 0
-439 19 -500 37 -9 3 -21 0 -28 -7z m472 -129 c16 -15 -4 -24 -24 -11 -11 7
-37 13 -57 13 l-38 2 35 7 c37 8 69 3 84 -11z"/>
<path d="M12830 5070 c0 -14 68 -45 77 -36 5 4 -3 16 -16 27 -25 20 -61 26
-61 9z"/>
<path d="M14075 5038 c-11 -6 -30 -20 -43 -31 -26 -24 -15 -37 35 -37 41 0 63
9 63 26 0 7 9 18 20 24 11 6 18 15 15 21 -8 12 -65 11 -90 -3z"/>
<path d="M9080 5015 c0 -8 9 -15 20 -15 13 0 18 5 14 15 -4 8 -12 15 -20 15
-8 0 -14 -7 -14 -15z"/>
<path d="M17078 5023 c7 -3 16 -2 19 1 4 3 -2 6 -13 5 -11 0 -14 -3 -6 -6z"/>
<path d="M12985 4950 c3 -5 19 -10 36 -10 16 0 29 5 29 10 0 6 -16 10 -36 10
-21 0 -33 -4 -29 -10z"/>
<path d="M14550 4910 c0 -5 5 -10 10 -10 6 0 10 5 10 10 0 6 -4 10 -10 10 -5
0 -10 -4 -10 -10z"/>
<path d="M11880 4835 c0 -17 2 -18 24 -9 23 9 20 24 -4 24 -11 0 -20 -7 -20
-15z"/>
<path d="M14413 4816 c10 -8 27 -11 38 -9 27 7 5 23 -31 23 -23 -1 -24 -2 -7
-14z"/>
<path d="M14943 4813 c15 -2 37 -2 50 0 12 2 0 4 -28 4 -27 0 -38 -2 -22 -4z"/>
<path d="M10615 4777 c-4 -10 -5 -21 -1 -24 10 -10 18 4 13 24 -4 17 -4 17
-12 0z"/>
<path d="M15206 4761 c-4 -6 -30 -8 -69 -5 -49 5 -72 2 -109 -15 -46 -19 -48
-22 -48 -61 0 -35 5 -43 42 -70 42 -31 72 -38 83 -20 3 6 15 10 26 10 25 0 25
20 -1 27 -26 7 -25 19 3 28 22 6 21 7 -5 17 -31 11 -36 26 -13 34 17 7 64 -10
115 -41 19 -12 44 -24 55 -28 88 -26 141 -38 209 -47 43 -6 90 -19 104 -28 21
-13 62 -18 206 -23 225 -8 461 -25 544 -40 35 -6 65 -9 68 -6 15 14 -51 37
-136 47 -52 6 -104 14 -114 17 -19 5 -19 6 -2 18 19 15 15 19 -29 29 -29 7
-29 8 -11 22 11 8 27 14 37 14 9 0 28 6 43 13 22 12 -2 15 -198 20 -226 6
-544 40 -686 74 -36 8 -75 17 -86 20 -12 3 -25 0 -28 -6z m629 -191 c4 -6 -5
-10 -19 -10 -14 0 -26 5 -26 10 0 6 9 10 19 10 11 0 23 -4 26 -10z"/>
<path d="M14895 4740 c3 -5 13 -10 21 -10 8 0 12 5 9 10 -3 6 -13 10 -21 10
-8 0 -12 -4 -9 -10z"/>
<path d="M14691 4673 c-8 -17 -8 -22 5 -27 36 -14 44 -3 20 29 -13 18 -14 18
-25 -2z"/>
<path d="M13504 4585 c-3 -8 0 -31 7 -52 7 -21 14 -33 16 -26 3 8 20 10 54 7
44 -5 49 -4 49 15 0 11 -4 31 -10 46 -8 21 -13 24 -29 16 -12 -7 -30 -7 -50
-1 -25 7 -33 6 -37 -5z"/>
<path d="M15348 4533 c6 -2 18 -2 25 0 6 3 1 5 -13 5 -14 0 -19 -2 -12 -5z"/>
<path d="M13881 4511 c-50 -14 -50 -55 0 -82 15 -8 23 -3 43 28 33 53 18 71
-43 54z"/>
<path d="M15508 4504 c14 -10 32 -14 48 -10 41 11 27 26 -23 26 -46 0 -47 0
-25 -16z"/>
<path d="M13536 4481 c-7 -10 30 -28 78 -36 37 -7 42 -2 30 29 -4 12 -20 16
-54 16 -27 0 -51 -4 -54 -9z"/>
<path d="M13650 4420 c0 -5 9 -15 20 -22 11 -7 20 -18 20 -25 0 -7 9 -17 20
-23 33 -17 25 10 -14 48 -34 33 -46 39 -46 22z"/>
<path d="M13770 4330 c0 -6 7 -10 15 -10 8 0 15 2 15 4 0 2 -7 6 -15 10 -8 3
-15 1 -15 -4z"/>
<path d="M13793 4293 c9 -2 25 -2 35 0 9 3 1 5 -18 5 -19 0 -27 -2 -17 -5z"/>
</g>
</svg>
