<?xml version="1.0" standalone="no"?>
<!DOCTYPE svg PUBLIC "-//W3C//DTD SVG 20010904//EN"
 "http://www.w3.org/TR/2001/REC-SVG-20010904/DTD/svg10.dtd">
<svg version="1.0" xmlns="http://www.w3.org/2000/svg"
 width="137.000000pt" height="56.000000pt" viewBox="0 0 137.000000 56.000000"
 preserveAspectRatio="xMidYMid meet">

<g transform="translate(0.000000,56.000000) scale(0.100000,-0.100000)"
fill="#000000" stroke="none">
<path d="M95 450 c-4 -6 -10 -8 -14 -6 -4 3 -20 -6 -37 -20 l-29 -26 -3 -134
c-3 -117 -2 -134 12 -134 9 0 16 -5 16 -11 0 -5 5 -7 10 -4 6 4 8 11 5 16 -4
5 -1 9 5 9 7 0 9 -8 5 -19 -8 -26 39 -51 92 -51 l38 0 -50 30 -50 29 3 140 3
141 37 25 c32 22 34 25 14 25 -13 0 -21 -4 -18 -9 3 -5 -3 -11 -15 -14 -16 -4
-18 -3 -8 9 7 9 8 14 1 14 -6 0 -14 -5 -17 -10z m-54 -297 c-12 -20 -14 -14
-5 12 4 9 9 14 11 11 3 -2 0 -13 -6 -23z m93 -65 c-3 -4 -11 -5 -19 -1 -21 7
-19 12 4 10 11 0 18 -5 15 -9z"/>
<path d="M199 428 c-18 -18 -30 -27 -25 -21 5 9 2 11 -8 7 -13 -5 -16 -29 -16
-145 l0 -139 25 16 c14 9 28 14 31 11 3 -3 -4 -8 -15 -12 -12 -3 -21 -10 -21
-15 0 -11 30 -21 41 -14 5 3 8 0 7 -7 -4 -18 41 -39 82 -39 l35 0 -45 30 c-25
16 -54 30 -65 31 -17 1 -17 2 -2 6 15 4 17 19 17 139 l0 135 37 22 c30 17 34
23 19 25 -10 2 -22 -2 -27 -10 -6 -10 -9 -10 -9 0 0 22 -28 13 -61 -20z m16
-7 c3 -5 2 -12 -3 -15 -5 -3 -9 1 -9 9 0 17 3 19 12 6z m33 -326 c-3 -3 -9 2
-12 12 -6 14 -5 15 5 6 7 -7 10 -15 7 -18z"/>
<path d="M563 365 c-36 -16 -73 -68 -73 -103 0 -38 30 -92 61 -107 64 -34 150
-9 175 50 22 53 20 55 -48 53 l-63 -2 53 -3 c37 -3 52 -8 52 -18 0 -23 -52
-74 -82 -81 l-28 -6 0 106 c0 103 1 106 23 106 12 0 33 -9 47 -20 31 -24 47
-26 29 -3 -16 19 -70 43 -96 43 -10 -1 -33 -7 -50 -15z"/>
<path d="M818 258 c-38 -61 -65 -114 -62 -117 3 -3 11 2 18 12 17 22 108 24
126 2 16 -20 123 -22 118 -2 -5 19 -121 217 -128 217 -3 0 -35 -50 -72 -112z
m45 -33 c9 -20 17 -38 17 -40 0 -3 -18 -5 -40 -5 -44 0 -47 7 -25 50 20 39 28
38 48 -5z"/>
<path d="M1050 256 l0 -117 53 3 c45 3 52 6 55 25 l3 22 36 -25 c20 -13 45
-24 57 -23 15 0 10 6 -19 19 -35 16 -38 19 -20 25 68 26 89 109 40 155 -22 21
-38 24 -115 28 l-90 4 0 -116z m165 89 c47 -19 62 -58 41 -102 -16 -33 -52
-51 -81 -39 -12 4 -15 23 -15 81 0 45 4 75 10 75 6 0 26 -7 45 -15z"/>
</g>
</svg>
