<?xml version="1.0" standalone="no"?>
<!DOCTYPE svg PUBLIC "-//W3C//DTD SVG 20010904//EN"
 "http://www.w3.org/TR/2001/REC-SVG-20010904/DTD/svg10.dtd">
<svg version="1.0" xmlns="http://www.w3.org/2000/svg"
 width="1080.000000pt" height="1080.000000pt" viewBox="0 0 1080.000000 1080.000000"
 preserveAspectRatio="xMidYMid meet">

<g transform="translate(0.000000,1080.000000) scale(0.100000,-0.100000)"
fill="#000000" stroke="none">
<path d="M2715 7048 c-40 -14 -83 -55 -96 -92 -11 -31 -11 -31 -90 -31 -75 0
-79 -1 -114 -35 -56 -54 -64 -119 -25 -203 12 -25 11 -29 -7 -42 -61 -43 -82
-139 -41 -190 25 -32 91 -64 131 -65 25 0 27 -3 27 -45 0 -73 -38 -213 -84
-310 -50 -106 -63 -121 -119 -136 -23 -6 -71 -24 -106 -40 -75 -34 -70 -37
-125 76 -72 149 -76 303 -11 489 91 262 16 398 -180 325 -127 -47 -239 -227
-270 -430 l-7 -44 -76 0 c-63 0 -85 -4 -119 -24 -110 -63 -113 -246 -8 -392
20 -28 35 -52 33 -53 -2 -1 -19 -12 -40 -24 -50 -31 -103 -92 -118 -137 -17
-52 -8 -149 21 -210 41 -89 191 -220 276 -241 28 -7 27 -5 6 -91 -25 -99 -24
-351 1 -457 109 -467 477 -792 956 -845 190 -21 421 25 598 120 204 109 358
263 457 458 14 28 25 53 25 56 0 3 -44 5 -98 5 l-99 0 -32 -50 c-18 -28 -36
-50 -40 -50 -4 0 -5 15 -3 33 5 43 -13 87 -35 87 -17 -1 -17 -1 0 -11 9 -5 17
-15 17 -20 0 -6 -13 -1 -30 11 l-30 21 -1 -113 0 -113 -47 -39 -47 -39 -3 71
-3 71 -33 -6 c-28 -4 -35 -2 -38 13 -5 24 -18 -121 -14 -161 2 -16 1 -35 -1
-41 -5 -13 -101 -60 -107 -53 -3 3 -6 57 -7 120 l-2 116 -33 -37 c-32 -36 -33
-39 -36 -135 l-3 -99 -47 -12 c-26 -6 -49 -9 -52 -6 -4 3 -6 36 -6 73 l0 69
-35 -18 -36 -17 3 -63 3 -62 -61 0 -61 0 5 50 c4 42 2 50 -12 50 -36 0 -56
-20 -56 -55 0 -33 -2 -35 -34 -35 -62 0 -86 15 -86 54 0 26 -5 35 -22 40 -48
12 -60 8 -56 -21 3 -32 -11 -33 -72 -5 -30 15 -36 23 -40 58 -4 31 -14 48 -44
75 l-39 34 5 -48 c4 -29 2 -47 -5 -47 -5 0 -29 15 -53 33 l-43 32 -1 84 c0 57
-6 97 -17 123 -17 37 -33 50 -33 26 0 -9 -4 -8 -10 2 -8 12 -10 12 -11 -5 l0
-20 -9 20 c-7 14 -9 -3 -7 -53 1 -39 -1 -72 -5 -72 -4 0 -27 26 -50 58 -42 55
-43 60 -48 147 -5 82 -7 90 -25 90 -11 0 -22 -6 -25 -13 -3 -8 -19 26 -35 75
-27 80 -30 100 -29 223 0 122 3 143 29 218 16 45 31 79 34 75 9 -13 31 -14 31
-2 0 5 4 7 10 4 6 -4 10 22 10 72 1 75 2 80 43 137 23 33 47 61 52 63 6 2 9
-25 7 -73 -2 -49 0 -74 6 -70 6 3 13 -2 15 -11 4 -16 5 -16 6 -1 1 14 6 15 32
8 l30 -9 -2 125 c-2 119 -1 125 22 150 20 21 69 54 81 54 2 0 2 -56 0 -125
l-3 -125 23 9 c37 14 42 13 49 -6 4 -10 8 53 8 139 l1 158 38 19 c75 38 74 39
73 -79 0 -58 3 -121 8 -140 5 -19 9 -27 10 -17 1 11 9 17 25 17 15 0 26 -7 29
-17 3 -10 5 50 6 134 1 87 5 154 11 158 5 3 32 9 60 12 l50 6 1 -139 c0 -76 4
-148 9 -159 5 -11 9 -14 9 -6 1 9 9 12 26 8 l26 -4 -3 154 -3 154 55 -3 55 -3
5 -165 c3 -91 7 -156 9 -145 l2 20 9 -20 9 -20 1 20 1 20 9 -20 9 -20 1 20 1
20 9 -20 c5 -12 9 41 9 139 l1 159 47 -7 c26 -3 51 -10 56 -15 5 -5 9 -65 8
-133 -2 -138 2 -158 30 -153 10 2 19 -1 19 -6 0 -6 5 -7 10 -4 6 4 10 60 10
136 0 83 4 129 10 129 16 0 94 -41 103 -54 4 -6 5 -30 3 -54 l-5 -43 63 59
c35 32 82 72 104 88 23 16 42 31 42 34 0 6 -120 85 -141 92 -14 6 -14 16 -2
110 8 61 12 167 11 260 l-3 156 35 6 c19 3 53 6 75 6 64 0 116 12 122 27 15
38 -76 158 -142 188 -41 19 -104 35 -137 35 -22 0 -32 8 -47 38 -20 38 -95
116 -120 124 -11 3 -15 25 -15 89 -1 102 -23 146 -90 178 -47 23 -66 25 -111
9z m127 -349 c28 -33 14 -92 -43 -180 -51 -78 -60 -111 -75 -251 -6 -66 -31
-97 -93 -118 -51 -16 -76 -1 -66 39 4 14 10 105 13 201 7 163 9 179 34 231 27
53 50 72 128 103 28 10 85 -3 102 -25z m-838 -35 c14 -36 4 -122 -20 -189 -15
-38 -35 -108 -46 -155 -39 -165 1 -363 105 -521 17 -25 16 -26 -10 -40 -51
-25 -139 -97 -198 -161 -75 -81 -126 -160 -167 -260 -30 -74 -34 -79 -58 -73
-27 7 -112 55 -145 83 -49 41 -97 110 -111 160 -20 68 -12 112 28 158 33 37
121 87 176 99 17 3 32 8 32 11 0 2 -31 35 -70 73 -85 84 -114 140 -114 229 -1
58 2 66 27 88 23 20 39 24 91 24 35 0 82 -7 105 -15 41 -14 41 -14 41 9 0 51
43 234 69 297 35 84 74 135 130 171 52 32 125 39 135 12z m1203 -146 c24 -11
54 -33 69 -50 32 -39 24 -44 -77 -54 l-75 -6 -22 59 c-12 33 -22 66 -22 72 0
17 72 5 127 -21z"/>
<path d="M5945 5741 c-89 -22 -116 -59 -205 -283 l-76 -193 -99 3 c-96 3 -103
2 -164 -29 -63 -32 -127 -86 -169 -144 l-22 -30 2 30 c4 65 -3 85 -37 119 -48
48 -103 62 -165 42 -44 -14 -52 -14 -86 0 -29 12 -60 15 -124 12 -99 -5 -159
-31 -229 -99 -34 -33 -45 -39 -52 -28 -5 8 -9 19 -9 25 0 25 -82 102 -132 125
-47 21 -67 24 -173 23 -107 0 -126 -3 -175 -26 -30 -14 -68 -39 -84 -57 -35
-37 -40 -37 -69 -11 -12 12 -32 23 -44 26 -13 4 -23 10 -23 14 0 5 22 66 50
137 65 166 68 223 15 282 -50 55 -105 67 -233 52 -139 -17 -189 -29 -261 -65
-116 -56 -272 -226 -337 -364 -10 -22 -26 -42 -34 -45 -8 -2 -58 -4 -110 -6
-249 -5 -406 -52 -558 -166 -112 -85 -198 -205 -236 -334 -21 -71 -21 -211 0
-282 70 -240 315 -374 545 -297 169 56 257 157 469 536 105 189 114 202 141
202 l29 0 -22 -52 c-24 -58 -34 -140 -23 -194 8 -44 59 -102 110 -125 33 -15
67 -19 194 -19 147 0 156 1 197 25 24 14 54 43 67 66 l25 41 23 -31 c29 -39
103 -86 161 -101 23 -7 82 -12 130 -12 122 0 199 26 269 89 l39 35 26 -31 c15
-18 48 -43 75 -56 42 -22 62 -25 153 -25 58 0 117 5 131 10 18 7 33 7 48 -2
23 -12 213 -14 251 -2 11 3 36 17 53 30 l32 25 43 -28 c37 -25 52 -28 152 -33
72 -3 122 -1 145 7 22 8 41 9 52 2 10 -5 70 -9 134 -9 122 0 152 8 189 49 25
27 27 27 79 -10 40 -28 55 -32 141 -38 53 -4 121 -4 151 0 117 16 214 91 273
213 32 66 34 68 64 62 17 -3 36 -6 43 -6 8 0 14 -20 17 -55 8 -98 77 -181 172
-206 51 -14 272 -14 307 0 15 5 42 23 62 40 32 28 36 30 48 14 8 -9 37 -27 64
-39 47 -22 63 -24 230 -24 160 0 184 2 217 20 37 19 37 19 83 -1 38 -17 67
-20 176 -20 112 0 136 2 170 20 39 21 39 21 77 1 50 -26 291 -31 338 -7 32 17
84 65 84 78 0 17 20 9 50 -21 48 -47 87 -62 180 -70 109 -9 213 5 265 35 60
35 128 112 164 188 81 169 58 345 -58 449 -69 62 -129 81 -245 76 -85 -3 -100
-6 -166 -40 l-72 -37 -34 32 c-31 29 -34 36 -34 92 0 71 -23 116 -71 140 -40
21 -112 21 -158 0 -41 -19 -92 -82 -112 -138 -14 -40 -25 -50 -71 -61 l-26 -6
5 59 c5 48 1 67 -18 106 -43 86 -153 124 -240 82 -82 -39 -123 -143 -90 -230
10 -25 8 -33 -15 -60 -28 -33 -74 -127 -103 -209 l-16 -47 -1 67 c-2 86 -36
159 -96 202 -58 42 -102 53 -199 48 -97 -4 -168 -32 -234 -91 l-40 -35 -20 41
c-32 64 -74 81 -217 85 -83 3 -118 8 -118 16 0 7 -16 27 -35 46 -28 27 -44 34
-88 38 -95 8 -142 -33 -193 -168 -15 -41 -28 -76 -29 -77 -1 -2 -28 24 -61 56
-79 76 -130 94 -258 89 -82 -3 -100 -7 -160 -37 -43 -23 -86 -55 -121 -93
l-54 -58 13 37 c8 21 48 123 90 228 43 104 79 208 83 230 14 104 -87 191 -192
166z m-2937 -585 c34 -2 48 1 40 6 -8 6 -2 7 17 3 34 -8 244 -7 257 1 4 3 8 2
8 -3 0 -8 308 -7 343 1 9 2 15 0 11 -5 -3 -5 22 -8 58 -7 l63 1 -55 7 -55 7
55 1 c73 3 100 -16 100 -66 0 -75 -54 -112 -165 -112 l-66 0 -15 -37 c-9 -21
-27 -60 -40 -88 l-24 -50 -91 3 c-68 3 -94 0 -100 -10 -18 -27 -9 12 21 94 17
45 30 83 30 85 0 2 -48 2 -106 1 l-106 -3 -46 -75 c-24 -41 -50 -78 -56 -83
-6 -4 -54 -6 -106 -5 -74 2 -98 0 -108 -12 -8 -8 9 29 37 83 l51 97 -78 0
c-178 0 -308 -44 -411 -140 -24 -23 -48 -37 -52 -33 -5 5 -34 6 -64 3 -30 -3
-55 -3 -55 0 0 11 -64 -2 -72 -14 -16 -24 -7 16 11 52 30 59 106 137 179 185
119 78 221 110 349 111 39 1 70 4 68 7 -4 5 33 4 173 -5z m1002 7 c0 -12 390
-10 390 2 1 27 50 -54 50 -82 l0 -33 -80 0 c-73 0 -80 2 -80 19 0 30 -39 51
-93 51 -59 0 -87 -14 -87 -42 0 -36 27 -55 126 -89 108 -37 168 -81 178 -130
3 -17 4 -34 2 -38 -3 -4 -30 -4 -60 -1 -30 3 -64 3 -75 -1 -12 -5 -24 -3 -31
7 -7 7 -48 25 -92 39 -127 40 -175 73 -196 134 -17 48 -15 79 9 128 18 38 39
57 39 36z m704 -9 c-19 -15 -19 -16 1 -8 11 4 56 7 99 6 44 -1 85 3 92 9 8 6
15 4 24 -6 16 -20 35 -19 67 3 15 9 24 11 20 5 -6 -10 0 -11 25 -7 18 3 39 7
46 10 7 2 22 -6 33 -17 26 -26 23 -47 -32 -182 -61 -152 -55 -147 -147 -147
-46 0 -83 -5 -90 -12 -14 -14 0 41 29 115 11 26 19 55 19 64 0 31 -31 53 -73
53 -34 0 -47 -7 -87 -47 -33 -33 -52 -62 -60 -93 -20 -75 -19 -75 -109 -78
-79 -3 -81 -2 -81 20 0 64 51 182 102 239 18 19 53 47 78 62 50 30 75 36 44
11z m736 9 c0 -5 42 -8 94 -8 52 0 92 3 90 7 -10 17 14 7 31 -12 23 -26 34
-25 45 3 5 12 9 18 9 12 1 -6 35 -9 86 -8 47 2 85 2 85 0 -1 -15 -48 -144 -84
-227 l-44 -105 -91 -2 c-50 0 -91 3 -91 7 0 5 11 40 25 78 14 38 25 75 25 82
0 27 -33 50 -72 50 -70 0 -158 -107 -158 -192 0 -33 -2 -35 -27 -32 -67 7 -99
7 -110 1 -6 -4 -14 -1 -16 5 -3 7 -6 4 -7 -7 -1 -18 -2 -18 -10 3 -13 32 5
116 38 178 33 63 76 112 128 148 40 27 54 32 54 19z m753 -1 c-6 -4 40 -7 102
-7 62 0 108 3 102 7 -8 5 -7 8 4 8 31 0 98 -60 124 -110 32 -64 35 -165 5
-225 -11 -22 -19 -33 -16 -25 3 13 -7 14 -65 10 -54 -4 -69 -2 -69 9 0 8 -8 4
-19 -10 -19 -24 -19 -23 0 46 15 54 17 77 9 101 -15 44 -43 66 -84 66 -75 0
-139 -69 -152 -163 l-6 -47 -81 -1 c-52 -1 -84 -6 -89 -14 -14 -21 -9 66 7
127 25 95 92 176 180 217 39 18 71 26 48 11z m1011 -20 c27 -53 -24 -122 -90
-122 -24 0 -40 -9 -67 -40 -49 -53 -87 -115 -87 -140 0 -19 -6 -20 -90 -20
-74 0 -90 3 -90 15 0 22 44 107 74 143 15 16 26 33 26 36 0 3 -16 6 -35 6 -33
0 -37 -3 -60 -56 -34 -76 -59 -97 -109 -91 -69 10 -78 48 -35 158 56 143 24
130 296 128 128 -1 237 1 240 5 10 9 11 8 27 -22z m283 21 c-7 -10 176 -8 193
2 36 22 110 -87 110 -163 0 -38 -5 -50 -39 -83 -45 -45 -72 -49 -106 -14 -18
17 -25 35 -25 64 0 76 -61 92 -123 33 -42 -39 -58 -77 -60 -136 l-1 -51 -88 3
-88 3 0 47 c1 99 74 221 164 272 51 30 71 37 63 23z m579 -9 c-4 -10 -2 -13 6
-8 6 4 29 10 49 14 80 15 88 -47 26 -195 -18 -44 -41 -95 -50 -112 l-17 -32
-90 0 c-50 0 -90 2 -90 5 0 5 46 124 83 214 17 41 42 87 56 103 28 31 36 34
27 11z m552 3 c68 -1 122 2 122 7 0 5 9 1 20 -9 24 -22 25 -48 3 -86 -21 -35
-33 -41 -107 -48 l-59 -6 -42 -100 c-41 -95 -45 -100 -72 -98 -126 7 -135 6
-144 -8 -17 -27 -9 6 22 91 45 124 45 116 8 124 -18 3 -38 11 -46 17 -21 18
-16 73 10 101 22 24 29 25 93 21 38 -2 124 -5 192 -6z m378 5 c-3 -5 39 -8 92
-7 53 2 106 -2 117 -8 18 -9 19 -9 6 6 -18 22 -9 21 38 -3 77 -39 121 -143
107 -251 -11 -82 -19 -89 -96 -83 -36 3 -70 7 -77 9 -6 2 -14 -1 -17 -8 -4 -7
-4 2 0 18 3 17 8 55 11 85 4 49 2 58 -21 83 -32 35 -88 37 -136 5 -40 -28 -80
-99 -80 -143 0 -18 -7 -38 -15 -45 -11 -9 -15 -9 -15 -1 0 7 -5 9 -14 4 -8 -4
-42 -6 -77 -5 l-62 4 6 60 c7 75 43 151 99 205 52 50 154 107 134 75z m-698
-198 c2 -1 -9 -32 -24 -69 -26 -65 -28 -67 -57 -61 -17 3 -32 8 -34 9 -1 2 12
40 30 84 l32 81 25 -21 c14 -12 26 -23 28 -23z m-4382 -55 c22 -24 17 -29 -27
-29 -34 0 -47 -6 -73 -33 l-31 -33 -30 18 c-16 9 -49 20 -72 24 -47 7 -47 7
-33 35 8 14 21 19 49 19 45 0 112 22 149 49 l26 19 14 -27 c7 -14 20 -33 28
-42z m1591 -12 c-22 -56 -37 -73 -37 -40 0 18 49 107 56 101 2 -3 -6 -30 -19
-61z m787 24 c-3 -44 -29 -81 -59 -81 -19 0 -25 5 -25 20 0 45 47 105 75 96 6
-2 9 -17 9 -35z m894 -18 c-5 -32 -10 -59 -12 -61 -2 -1 -33 -2 -70 0 l-66 3
38 50 c31 41 45 51 77 56 22 3 40 7 41 8 1 0 -3 -25 -8 -56z m1912 26 c0 -48
-29 -89 -63 -89 -30 0 -30 2 -6 66 7 21 45 54 61 54 5 0 8 -14 8 -31z m-4323
-34 c-12 -30 -28 -55 -35 -55 -9 0 -9 9 3 37 13 32 42 73 51 73 1 0 -8 -25
-19 -55z m2799 -36 c18 -20 18 -20 -21 -17 -38 3 -40 4 -38 36 0 18 7 40 14
49 12 14 14 12 20 -16 4 -18 15 -41 25 -52z m1110 50 c-3 -17 -6 -44 -6 -60 0
-27 -1 -28 -32 -17 -18 6 -34 12 -36 13 -1 1 6 23 17 49 15 34 26 46 42 46 19
0 21 -4 15 -31z m-5876 -4 c0 -8 -138 -252 -167 -296 -61 -93 -119 -118 -171
-74 -28 24 -32 33 -32 78 1 126 99 234 254 278 61 18 116 24 116 14z m2326
-40 c-4 -14 -10 -25 -15 -25 -5 0 -4 13 2 30 13 35 22 32 13 -5z m730 -23
c-12 -11 -18 7 -10 30 l8 23 4 -23 c2 -13 1 -26 -2 -30z m1963 18 c-6 -16 -17
-30 -25 -30 -11 0 -9 8 8 30 12 17 23 30 24 30 2 0 -2 -13 -7 -30z"/>
</g>
</svg>
